<svg id="Icons" xmlns="http://www.w3.org/2000/svg" viewBox="0 0 40 40"><defs><style>.cls-1{fill:#7d91cb;}.cls-2{fill:#002979;}</style></defs><rect class="cls-1" x="7.65" y="24.51" width="3.55" height="1" transform="translate(-14.93 13.99) rotate(-45)"/><rect class="cls-1" x="13.21" y="30.08" width="3.55" height="1" transform="translate(-17.23 19.55) rotate(-45)"/><rect class="cls-1" x="8.43" y="28.12" width="5.89" height="1" transform="translate(-16.91 16.43) rotate(-45)"/><path class="cls-2" d="M22.44,32.86,7.14,17.56l.35-.36a14.13,14.13,0,0,1,9.22-4.12l1.77-.1.06,1-1.77.11a13.12,13.12,0,0,0-8.21,3.48L22.44,31.44a13.18,13.18,0,0,0,3.49-8.21L26,21.46l1,.06-.1,1.77a14.13,14.13,0,0,1-4.12,9.22Z"/><path class="cls-2" d="M19.15,29.57l-8.72-8.72,8.7-8.7a15.22,15.22,0,0,1,8.35-4.28l3.12-.5a1.76,1.76,0,0,1,2,2l-.5,3.11a15.22,15.22,0,0,1-4.28,8.35Zm-7.31-8.72,7.31,7.31,8-8a14.18,14.18,0,0,0,4-7.8l.51-3.11a.78.78,0,0,0-.22-.68.77.77,0,0,0-.67-.22l-3.12.51a14.18,14.18,0,0,0-7.8,4Z"/></svg>