<svg id="Layer_1" data-name="Layer 1" xmlns="http://www.w3.org/2000/svg" viewBox="0 0 40 40"><defs><style>.cls-1{fill:#7d91cb;}.cls-2{fill:#002979;}</style></defs><polygon class="cls-1" points="30 27 28 27 28 26 29 26 29 14 11 14 11 15 10 15 10 13 30 13 30 27"/><polygon class="cls-1" points="33 24 31 24 31 23 32 23 32 11 14 11 14 12 13 12 13 10 33 10 33 24"/><path class="cls-2" d="M7,16V29.5A2.49,2.49,0,0,0,9.18,32a2.4,2.4,0,0,0,.28,0h15A2.5,2.5,0,0,0,27,29.5V16ZM9.5,31H9.43a.73.73,0,0,1-.56-.29.7.7,0,0,1-.11-.64l.9-3A1.7,1.7,0,0,1,11.24,26h2.59a1.69,1.69,0,0,1,1.57,1l1.18,4ZM14,23.5a1.5,1.5,0,0,1-3,0v-2a1.5,1.5,0,0,1,3,0Zm12,6A1.5,1.5,0,0,1,24.5,31H17.62l-1.28-4.29a2.68,2.68,0,0,0-1.91-1.64A2.47,2.47,0,0,0,15,23.5v-2a2.5,2.5,0,0,0-5,0v2a2.47,2.47,0,0,0,.59,1.59,2.69,2.69,0,0,0-1.87,1.65L8,29.12V17H26Z"/><rect class="cls-2" x="18" y="21" width="6" height="1"/><rect class="cls-2" x="18" y="25" width="6" height="1"/></svg>