<svg id="Icons" xmlns="http://www.w3.org/2000/svg" viewBox="0 0 40 40"><defs><style>.cls-1{fill:#7d91cb;}.cls-2{fill:#002979;}</style></defs><path class="cls-1" d="M20,35.26l-4.64-3.44A21.81,21.81,0,0,1,6.47,15.53L6.14,9.78,19.06,5.24a2.85,2.85,0,0,1,1.87,0L33.86,9.78l-.33,5.75a21.79,21.79,0,0,1-8.89,16.29ZM7.18,10.47l.29,5A20.84,20.84,0,0,0,16,31L20,34l4.05-3a20.84,20.84,0,0,0,8.48-15.55l.29-5L20.6,6.18a1.77,1.77,0,0,0-1.2,0Z"/><path class="cls-2" d="M20.86,18.5c1.13-1.12,1.76-1.84,1.76-3.06a2.18,2.18,0,0,0-2.28-2.36c-1.52,0-2.43,1.16-2.4,3.24L16.7,16.1c0-2.68,1.43-4.26,3.64-4.26a3.45,3.45,0,0,1,3.6,3.58c0,1.46-.63,2.48-2.22,4A2.9,2.9,0,0,0,20.58,22H19.35A4.11,4.11,0,0,1,20.86,18.5ZM19.1,23.86h1.76v2.22H19.1Z"/></svg>