<svg width="23" height="21" viewBox="0 0 23 21" fill="none" xmlns="http://www.w3.org/2000/svg">
<path d="M22.5785 15.8152L14.0858 1.46765C13.5281 0.556697 12.5648 0 11.5 0C10.4352 0 9.4719 0.556697 8.91418 1.46765L0.421519 15.8152C-0.136207 16.7262 -0.136208 17.8649 0.396168 18.7759C0.953895 19.7374 1.91724 20.2941 2.98199 20.2941H20.018C21.0828 20.2941 22.0715 19.7374 22.6038 18.7759C23.1362 17.8649 23.1362 16.7262 22.5785 15.8152Z" fill="#EBD551"/>
<path d="M11.5 5.41177C11.129 5.41177 10.8235 5.75973 10.8235 6.18226V12.4207C10.8235 12.8432 11.129 13.1912 11.5 13.1912C11.871 13.1912 12.1765 12.8432 12.1765 12.4207V6.18226C12.1765 5.75973 11.871 5.41177 11.5 5.41177Z" fill="white"/>
<ellipse cx="11.3309" cy="15.5588" rx="0.845589" ry="0.676471" fill="white"/>
</svg>
