<svg id="Icons" xmlns="http://www.w3.org/2000/svg" viewBox="0 0 40 40"><defs><style>.cls-1{fill:#7d91cb;}.cls-2{fill:#00297a;}</style></defs><path class="cls-1" d="M32.9985,6H8.0005v4.5H8.002v13a2.501,2.501,0,0,0,2.5,2.5h6.5V25h-6.5A1.5,1.5,0,0,1,9,23.5V11H32.002V23.5a1.4979,1.4979,0,0,1-1.5,1.5h-6.5v1h6.5A2.4993,2.4993,0,0,0,33,23.5ZM9.0005,10V7h23v3Z"/><path class="cls-2" d="M22.7119,14.05l-.71-.34v2.91a1.5676,1.5676,0,0,1-1.32,1.76,1.4626,1.4626,0,0,1-1.16-.35,1.7677,1.7677,0,0,1-.52-1.32v-3l-.72.34a5.59,5.59,0,0,0-3.41,4.84,5.1844,5.1844,0,0,0,3.13,4.97V31.5A2.499,2.499,0,1,0,23,31.5V23.86a5.1782,5.1782,0,0,0,3.1221-4.97A5.5909,5.5909,0,0,0,22.7119,14.05Zm-.37,8.99-.34.12V31.5A1.501,1.501,0,0,1,19,31.5V23.16l-.3379-.12a4.1853,4.1853,0,0,1-2.79-4.15,4.47,4.47,0,0,1,2.13-3.53v1.35a2.7626,2.7626,0,0,0,.85,2.06,2.4361,2.4361,0,0,0,1.92.61,2.54,2.54,0,0,0,2.23-2.76V15.36a4.46,4.46,0,0,1,2.12,3.53A4.1775,4.1775,0,0,1,22.3418,23.04Z"/></svg>