<svg width="13" height="20" viewBox="0 0 13 20" fill="none" xmlns="http://www.w3.org/2000/svg">
<path d="M2.5 3.91529C2.5 1.86602 4.09536 0.5 6.17241 0.5C8.24947 0.5 9.84483 1.86602 9.84483 3.91529C9.84483 4.68992 9.38768 5.59114 8.83187 6.46897C8.66879 6.72653 8.52074 6.94743 8.37836 7.15988C8.26953 7.32227 8.16401 7.47973 8.05761 7.64483C7.9454 7.81897 7.84128 7.98883 7.75974 8.14515C7.74638 8.17078 7.73302 8.19714 7.7199 8.22414H4.62627C4.61326 8.19694 4.60001 8.17033 4.58674 8.14444C4.50569 7.98628 4.40204 7.81345 4.28986 7.63554C4.19003 7.47724 4.07808 7.30651 3.96281 7.13073C3.94805 7.10823 3.93324 7.08564 3.91839 7.06298C3.78641 6.86161 3.64974 6.65211 3.51459 6.43573C3.24325 6.00133 2.98608 5.5518 2.79739 5.11157C2.60717 4.66779 2.5 4.26386 2.5 3.91529Z" stroke="white"/>
<g filter="url(#filter0_d)">
<path d="M5.03448 8.22414H4.53448V8.72414V9.29311V11V11.5H5.03448H7.31035H7.81035V11V9.29311V8.72414V8.22414H7.31035H5.03448Z" stroke="white"/>
</g>
<path d="M5.79312 3.53448C6.06926 3.53448 6.29312 3.31062 6.29312 3.03448C6.29312 2.75834 6.06926 2.53448 5.79312 2.53448L5.79312 3.53448ZM4.15519 4.17241C4.15519 4.44855 4.37905 4.67241 4.65519 4.67241C4.93133 4.67241 5.15519 4.44855 5.15519 4.17241L4.15519 4.17241ZM5.79312 3.03448C5.79312 2.53448 5.79288 2.53448 5.79263 2.53448C5.79254 2.53448 5.79229 2.53448 5.79213 2.53448C5.79179 2.53448 5.79144 2.53448 5.79109 2.53449C5.79039 2.53449 5.78966 2.53449 5.78891 2.5345C5.7874 2.53451 5.78579 2.53453 5.78409 2.53456C5.78067 2.53461 5.77685 2.5347 5.77265 2.53483C5.76424 2.5351 5.75426 2.53557 5.74282 2.53633C5.71996 2.53785 5.69114 2.54059 5.65722 2.54543C5.58946 2.55511 5.50062 2.57333 5.39794 2.60755C5.19084 2.67658 4.93168 2.8095 4.68095 3.06024L5.38805 3.76734C5.51663 3.63877 5.63678 3.58203 5.71417 3.55624C5.75373 3.54305 5.78342 3.53756 5.79864 3.53538C5.8062 3.5343 5.80998 3.53407 5.80934 3.53411C5.80901 3.53414 5.80756 3.53423 5.80489 3.53431C5.80355 3.53436 5.80191 3.5344 5.79996 3.53443C5.79898 3.53445 5.79792 3.53446 5.79678 3.53447C5.79621 3.53447 5.79562 3.53447 5.79501 3.53448C5.79471 3.53448 5.7944 3.53448 5.79408 3.53448C5.79392 3.53448 5.79368 3.53448 5.79361 3.53448C5.79336 3.53448 5.79312 3.53448 5.79312 3.03448ZM4.68095 3.06024C4.43021 3.31097 4.29729 3.57014 4.22826 3.77723C4.19404 3.87991 4.17582 3.96875 4.16614 4.03651C4.1613 4.07043 4.15856 4.09925 4.15704 4.12211C4.15628 4.13355 4.15581 4.14353 4.15554 4.15194C4.15541 4.15614 4.15532 4.15996 4.15526 4.16338C4.15524 4.16508 4.15522 4.16669 4.15521 4.1682C4.1552 4.16895 4.1552 4.16968 4.15519 4.17038C4.15519 4.17073 4.15519 4.17108 4.15519 4.17142C4.15519 4.17159 4.15519 4.17183 4.15519 4.17192C4.15519 4.17217 4.15519 4.17241 4.65519 4.17241C5.15519 4.17241 5.15519 4.17266 5.15519 4.1729C5.15519 4.17298 5.15519 4.17322 5.15519 4.17337C5.15519 4.17369 5.15519 4.174 5.15519 4.1743C5.15518 4.17491 5.15518 4.1755 5.15518 4.17607C5.15517 4.17721 5.15515 4.17827 5.15514 4.17925C5.15511 4.1812 5.15507 4.18285 5.15502 4.18418C5.15494 4.18685 5.15485 4.1883 5.15482 4.18863C5.15478 4.18927 5.15501 4.18549 5.15609 4.17793C5.15827 4.16271 5.16376 4.13302 5.17695 4.09346C5.20274 4.01607 5.25948 3.89592 5.38805 3.76734L4.68095 3.06024Z" fill="white"/>
<line x1="5.03448" y1="9.9" x2="7.31035" y2="9.9" stroke="white"/>
<defs>
<filter id="filter0_d" x="0.0344849" y="7.72414" width="12.2759" height="12.2759" filterUnits="userSpaceOnUse" color-interpolation-filters="sRGB">
<feFlood flood-opacity="0" result="BackgroundImageFix"/>
<feColorMatrix in="SourceAlpha" type="matrix" values="0 0 0 0 0 0 0 0 0 0 0 0 0 0 0 0 0 0 127 0"/>
<feOffset dy="4"/>
<feGaussianBlur stdDeviation="2"/>
<feColorMatrix type="matrix" values="0 0 0 0 0 0 0 0 0 0 0 0 0 0 0 0 0 0 0.25 0"/>
<feBlend mode="normal" in2="BackgroundImageFix" result="effect1_dropShadow"/>
<feBlend mode="normal" in="SourceGraphic" in2="effect1_dropShadow" result="shape"/>
</filter>
</defs>
</svg>
