<?xml version="1.0" encoding="UTF-8" standalone="no"?>
<!-- Created with Inkscape (http://www.inkscape.org/) -->

<svg
   width="73.440628mm"
   height="13.267739mm"
   viewBox="0 0 73.440628 13.267739"
   version="1.1"
   id="svg1"
   inkscape:version="1.3 (0e150ed, 2023-07-21)"
   sodipodi:docname="okta-logo.svg"
   xmlns:inkscape="http://www.inkscape.org/namespaces/inkscape"
   xmlns:sodipodi="http://sodipodi.sourceforge.net/DTD/sodipodi-0.dtd"
   xmlns="http://www.w3.org/2000/svg"
   xmlns:svg="http://www.w3.org/2000/svg">
  <sodipodi:namedview
     id="namedview1"
     pagecolor="#ffffff"
     bordercolor="#666666"
     borderopacity="1.0"
     inkscape:showpageshadow="2"
     inkscape:pageopacity="0.0"
     inkscape:pagecheckerboard="0"
     inkscape:deskcolor="#d1d1d1"
     inkscape:document-units="mm"
     inkscape:zoom="2.74"
     inkscape:cx="137.9562"
     inkscape:cy="3.649635"
     inkscape:window-width="1408"
     inkscape:window-height="609"
     inkscape:window-x="129"
     inkscape:window-y="141"
     inkscape:window-maximized="0"
     inkscape:current-layer="layer1" />
  <defs
     id="defs1" />
  <g
     inkscape:label="Layer 1"
     inkscape:groupmode="layer"
     id="layer1"
     transform="translate(-24.365515,-55.134023)">
    <path
       class="cls-2"
       d="m 32.291852,55.228008 -0.29575,3.360533 4.3e-4,3.94e-4 c -0.13996,-0.01576 -0.28163,-0.02463 -0.42608,-0.02463 -0.17976,0 -0.35674,0.01261 -0.52922,0.03685 l -0.16799,-1.629624 c -0.005,-0.05084 0.0385,-0.09537 0.0944,-0.09458 h 0.30239 l -0.14574,-1.648738 c -0.005,-0.05045 0.0385,-0.09419 0.0939,-0.09419 h 0.97969 c 0.0548,0 0.0982,0.04355 0.0939,0.09419 z m -2.47256,0.166903 c -0.0146,-0.04887 -0.0715,-0.07606 -0.12327,-0.05853 l -0.92063,0.308782 c -0.0518,0.01734 -0.0764,0.07192 -0.0535,0.118034 l 0.749,1.503314 -0.2844,0.09458 c -0.0522,0.01734 -0.0773,0.07271 -0.0531,0.119217 l 0.76313,1.478485 c 0.27692,-0.140302 0.57652,-0.246119 0.89281,-0.312723 l -0.97006,-3.250972 z m -2.26114,0.935802 2.11882,2.74908 4.3e-4,3.94e-4 c -0.26857,0.160795 -0.51167,0.354891 -0.72225,0.575787 l -1.26731,-1.149604 c -0.04,-0.03586 -0.0368,-0.09577 0.006,-0.128478 l 0.23176,-0.17853 -1.26196,-1.176797 c -0.0385,-0.03586 -0.0355,-0.09498 0.007,-0.12769 l 0.75029,-0.58032 c 0.0426,-0.03271 0.10571,-0.02503 0.13781,0.01616 z m -1.77749,1.591396 c -0.0451,-0.02877 -0.10785,-0.01576 -0.13567,0.02779 l -0.48964,0.78151 c -0.0276,0.04414 -0.008,0.1003 0.0413,0.121975 l 1.62298,0.708404 -0.15173,0.240798 c -0.028,0.04453 -0.008,0.101482 0.0426,0.122764 l 1.61699,0.680816 c 0.11705,-0.276858 0.2737,-0.534997 0.46502,-0.76811 l -3.01185,-1.916139 z m -1.195618,2.124226 c 0.0096,-0.05005 0.06313,-0.08197 0.11663,-0.06916 l 3.541498,0.851858 c -0.0918,0.275479 -0.14295,0.566929 -0.15001,0.868809 l -1.77321,-0.13104 c -0.0556,-0.004 -0.0952,-0.0514 -0.0856,-0.10188 l 0.0531,-0.273904 -1.787978,-0.154292 c -0.05478,-0.0049 -0.09395,-0.05183 -0.08432,-0.101876 l 0.169703,-0.888707 z m -0.13375,2.202257 c -0.05478,0.005 -0.09395,0.0518 -0.08432,0.10188 l 0.170345,0.8887 c 0.0096,0.0501 0.06356,0.082 0.11663,0.0692 l 1.737693,-0.41815 0.0518,0.27391 c 0.01,0.0504 0.0644,0.0824 0.11813,0.0688 l 1.71393,-0.43568 c -0.101,-0.27351 -0.16328,-0.56279 -0.17997,-0.86388 l -3.644007,0.31568 z m 0.566888,2.33527 c -0.0276,-0.0441 -0.009,-0.1003 0.0413,-0.12217 l 3.30674,-1.44381 c 0.12583,0.27312 0.29233,0.52653 0.49135,0.75452 l -1.44922,0.9492 c -0.0451,0.0299 -0.10892,0.017 -0.13653,-0.0274 l -0.15044,-0.24119 -1.47746,0.94033 c -0.0456,0.0292 -0.10786,0.0162 -0.13568,-0.0278 l -0.49006,-0.78151 z m 4.00652,-0.63313 -2.57207,2.39951 c -0.0385,0.0359 -0.0355,0.095 0.007,0.12769 l 0.75071,0.57993 c 0.0422,0.0327 0.10572,0.025 0.13782,-0.0162 l 1.03897,-1.34883 0.23134,0.17952 c 0.0426,0.0331 0.107,0.025 0.13867,-0.0169 l 1.0088,-1.34764 c -0.27371,-0.1535 -0.52259,-0.34149 -0.74023,-0.55608 l -4.3e-4,-7.9e-4 z m -0.50804,3.85297 c -0.0518,-0.0173 -0.0764,-0.0719 -0.0535,-0.11804 h 4.3e-4 l 1.52561,-3.06456 c 0.28077,0.13223 0.58358,0.23075 0.90223,0.28888 l -0.44748,1.5845 c -0.0141,0.0497 -0.0715,0.0776 -0.12369,0.0599 l -0.28398,-0.0958 -0.47572,1.59494 c -0.0145,0.0489 -0.0715,0.0761 -0.12327,0.0585 z m 2.62729,-2.85687 v 0 c 0,0 -4.3e-4,0 -4.3e-4,0 z m 0,0 -0.29575,3.36073 c -0.004,0.0504 0.0389,0.0942 0.0939,0.0942 h 0.97969 c 0.0554,0 0.0987,-0.0437 0.0939,-0.0942 l -0.14574,-1.64874 h 0.30239 c 0.0556,7.9e-4 0.0995,-0.0437 0.0944,-0.0946 l -0.16799,-1.62963 c -0.17248,0.0242 -0.34925,0.0367 -0.52922,0.0367 -0.14424,0 -0.28591,-0.009 -0.42565,-0.0246 z m 3.53315,-9.097518 c 0.0229,-0.04611 -0.002,-0.100694 -0.0535,-0.118034 l -0.92063,-0.308388 c -0.0518,-0.01734 -0.10871,0.0097 -0.12326,0.05853 l -0.47573,1.594943 -0.28398,-0.09577 c -0.0522,-0.01773 -0.10978,0.01005 -0.12369,0.05971 l -0.44747,1.5845 c 0.31864,0.05813 0.62124,0.156853 0.90222,0.288879 l 1.52604,-3.064561 z m 2.01054,1.335622 -2.57208,2.399508 -4.2e-4,-7.88e-4 c -0.21764,-0.21459 -0.46631,-0.402381 -0.74023,-0.556082 l 1.0088,-1.347642 c 0.0317,-0.04197 0.0961,-0.05005 0.13867,-0.01695 l 0.23133,0.179318 1.03898,-1.348824 c 0.0321,-0.04118 0.0956,-0.04887 0.13781,-0.01616 l 0.75072,0.579926 c 0.0422,0.03271 0.0452,0.09183 0.007,0.12769 z m 1.39314,1.888354 c 0.0501,-0.02187 0.0689,-0.07803 0.0413,-0.121975 l -0.49006,-0.781511 c -0.0276,-0.04414 -0.0899,-0.05695 -0.13567,-0.02798 l -1.47746,0.940334 -0.15045,-0.241192 c -0.0276,-0.04453 -0.0912,-0.05734 -0.13653,-0.02739 l -1.44921,0.949202 c 0.19923,0.227989 0.36551,0.481202 0.49156,0.754514 l 3.30652,-1.443804 z m 0.52174,1.223105 0.17034,0.888707 4.3e-4,3.94e-4 c 0.01,0.05006 -0.0293,0.09695 -0.0843,0.101876 l -3.64443,0.31528 c -0.0167,-0.30109 -0.079,-0.590365 -0.17976,-0.863874 l 1.71393,-0.435683 c 0.0535,-0.01379 0.10829,0.01813 0.11813,0.06877 l 0.0518,0.273903 1.73768,-0.418145 c 0.0531,-0.01301 0.107,0.01892 0.11663,0.06916 z m -0.16457,3.261417 c 0.0535,0.013 0.107,-0.0189 0.11663,-0.0692 l 0.16992,-0.88851 c 0.01,-0.05 -0.0293,-0.0969 -0.0843,-0.10187 l -1.78798,-0.15429 0.0531,-0.27391 c 0.01,-0.0504 -0.0298,-0.0977 -0.0856,-0.10187 l -1.773,-0.13104 c -0.007,0.30188 -0.0589,0.59332 -0.15001,0.8688 l 3.54149,0.85146 v 4e-4 z m -0.94332,2.02727 c -0.0276,0.0437 -0.0903,0.0566 -0.13546,0.0278 l 4.3e-4,-3.9e-4 -3.01227,-1.91575 c 0.19131,-0.23311 0.34796,-0.49125 0.46502,-0.76811 l 1.61699,0.68101 c 0.0509,0.0215 0.0706,0.0784 0.0426,0.12277 l -0.15194,0.2408 1.6232,0.7084 c 0.0496,0.0219 0.0689,0.078 0.0413,0.12197 l -0.48963,0.78151 z m -4.03198,-1.12989 2.11882,2.74947 c 0.0321,0.0412 0.0952,0.0489 0.13781,0.0162 l 0.75029,-0.58032 c 0.0422,-0.0327 0.0452,-0.0918 0.007,-0.12769 l -1.26196,-1.1766 0.23177,-0.17853 c 0.0426,-0.0327 0.0456,-0.0926 0.006,-0.12848 l -1.26709,-1.1496 c -0.21058,0.22109 -0.45369,0.41499 -0.72226,0.57578 h 4.3e-4 z m -0.0184,3.7436 c -0.0518,0.0173 -0.10892,-0.01 -0.12326,-0.0585 l -0.97007,-3.25097 c 0.3163,-0.0666 0.61611,-0.17262 0.89303,-0.31272 l 0.76291,1.47849 c 0.0242,0.0465 -8.6e-4,0.10187 -0.0531,0.11921 l -0.28441,0.0946 0.749,1.50331 c 0.0229,0.0461 -0.002,0.10069 -0.0535,0.11804 l -0.92063,0.30878 z"
       id="path1"
       style="fill-rule:evenodd;stroke-width:0.0205352" />
    <path
       d="m 65.267984,64.143214 c -1.20889,0 -2.06361,-0.86566 -2.06361,-2.00127 0,-1.13561 0.85472,-2.001264 2.06361,-2.001264 1.20889,0 2.03922,0.865654 2.03922,2.001264 0,1.13561 -0.84253,2.00127 -2.03922,2.00127 z m -0.19538,1.19177 c 0.97691,0 1.80724,-0.34859 2.33218,-1.07945 0.0976,0.7084 0.65934,0.96693 1.36746,0.96693 h 0.56176 v -1.12438 h -0.24418 c -0.40296,0 -0.50055,-0.17991 -0.50055,-0.59589 v -4.441165 h -1.29427 v 0.910777 c -0.43956,-0.640815 -1.26988,-1.023096 -2.22219,-1.023096 -1.69724,0 -3.26008,1.30429 -3.26008,3.193034 0,1.88875 1.56284,3.19304 3.26008,3.19304 z m -6.66676,-1.54036 c 0,1.01187 0.68373,1.42784 1.50185,1.42784 h 1.57505 v -1.12438 h -1.14769 c -0.47615,0 -0.57395,-0.16868 -0.57395,-0.59589 v -3.316783 h 1.72164 v -1.124382 h -1.72164 v -2.068854 h -1.35526 v 6.802249 z m -6.16622,1.42784 h 1.35527 v -2.64208 h 0.45175 l 2.30779,2.64208 h 1.70943 l -2.94272,-3.35048 2.25899,-2.810757 h -1.52625 l -1.84383,2.372317 h -0.41516 v -4.440975 h -1.35527 v 8.230095 z m -4.39579,-6.273754 c -1.89262,0 -3.45547,1.30429 -3.45547,3.193034 0,1.88875 1.56285,3.19304 3.45547,3.19304 1.89262,0 3.45547,-1.30429 3.45547,-3.19304 0,-1.888744 -1.56285,-3.193034 -3.45547,-3.193034 z m 0,5.194504 c -1.20889,0 -2.06361,-0.86566 -2.06361,-2.00127 0,-1.13561 0.85472,-2.001264 2.06361,-2.001264 1.20889,0 2.06361,0.865654 2.06361,2.001264 0,1.13561 -0.85472,2.00127 -2.06361,2.00127 z"
       id="path2"
       style="stroke-width:0.0205352" />
    <text
       xml:space="preserve"
       style="font-style:normal;font-variant:normal;font-weight:400;font-stretch:normal;font-size:13.1114px;line-height:1.25;font-family:'DM Sans';-inkscape-font-specification:'DM Sans, Normal';font-variant-ligatures:normal;font-variant-caps:normal;font-variant-numeric:normal;font-variant-east-asian:normal;letter-spacing:-0.655564px;fill:#6b665f;fill-opacity:1;stroke:none;stroke-width:0.109261"
       x="71.337334"
       y="65.267288"
       id="text2"><tspan
         sodipodi:role="line"
         id="tspan2"
         x="71.337334"
         y="65.267288"
         rotate="0 0 0 0"
         style="font-style:normal;font-variant:normal;font-weight:normal;font-stretch:normal;font-size:12.7px;font-family:'DM Sans';-inkscape-font-specification:'DM Sans, Normal';font-variant-ligatures:normal;font-variant-caps:normal;font-variant-numeric:normal;font-variant-east-asian:normal;stroke-width:0.109261">docs</tspan></text>
  </g>
</svg>
