<?xml version="1.0" encoding="UTF-8" standalone="no"?>
<svg
   id="Layer_2"
   data-name="Layer 2"
   viewBox="0 0 1272.6761 130"
   version="1.1"
   sodipodi:docname="okta-logo.svg"
   inkscape:version="1.3 (0e150ed, 2023-07-21)"
   width="900"
   height="130"
   xmlns:inkscape="http://www.inkscape.org/namespaces/inkscape"
   xmlns:sodipodi="http://sodipodi.sourceforge.net/DTD/sodipodi-0.dtd"
   xmlns="http://www.w3.org/2000/svg"
   xmlns:svg="http://www.w3.org/2000/svg">
  <sodipodi:namedview
     id="namedview1"
     pagecolor="#ffffff"
     bordercolor="#666666"
     borderopacity="1.0"
     inkscape:showpageshadow="2"
     inkscape:pageopacity="0.0"
     inkscape:pagecheckerboard="0"
     inkscape:deskcolor="#d1d1d1"
     inkscape:zoom="1.3289991"
     inkscape:cx="307.7504"
     inkscape:cy="69.601251"
     inkscape:window-width="1432"
     inkscape:window-height="700"
     inkscape:window-x="0"
     inkscape:window-y="25"
     inkscape:window-maximized="0"
     inkscape:current-layer="Layer_2"
     showgrid="false" />
  <defs
     id="defs1">
    <style
       id="style1">&#10;      .cls-1 {&#10;        fill: none;&#10;      }&#10;    </style>
  </defs>
  <text
     xml:space="preserve"
     style="font-style:normal;font-variant:normal;font-weight:400;font-stretch:normal;font-size:119.421px;line-height:1.25;font-family:'DM Sans';-inkscape-font-specification:'DM Sans, Normal';font-variant-ligatures:normal;font-variant-caps:normal;font-variant-numeric:normal;font-variant-east-asian:normal;letter-spacing:-5.971px;fill:#6b665f;fill-opacity:1;stroke:none;stroke-width:0.995166"
     x="473.48929"
     y="97.514603"
     id="text2"><tspan
       sodipodi:role="line"
       id="tspan2"
       x="473.48929"
       y="97.514603"
       rotate="0 0 0 0"
       style="stroke-width:0.995166">docs</tspan></text>
  <g
     id="Layer_1-2"
     data-name="Layer 1"
     transform="matrix(0.19669878,0,0,0.19669878,0,-31.10986)">
    <g
       id="g2">
      <g
         id="Logomark_Black">
        <path
           class="cls-2"
           d="m 542.21,178.94 -13.82,170.54 0.02,0.02 c -6.54,-0.8 -13.16,-1.25 -19.91,-1.25 -8.4,0 -16.67,0.64 -24.73,1.87 l -7.85,-82.7 c -0.24,-2.58 1.8,-4.84 4.41,-4.8 h 14.13 l -6.81,-83.67 c -0.23,-2.56 1.8,-4.78 4.39,-4.78 h 45.78 c 2.56,0 4.59,2.21 4.39,4.78 z m -115.54,8.47 c -0.68,-2.48 -3.34,-3.86 -5.76,-2.97 l -43.02,15.67 c -2.42,0.88 -3.57,3.65 -2.5,5.99 l 35,76.29 -13.29,4.8 c -2.44,0.88 -3.61,3.69 -2.48,6.05 l 35.66,75.03 C 443.22,361.15 457.22,355.78 472,352.4 L 426.67,187.42 Z m -105.66,47.49 99.01,139.51 0.02,0.02 c -12.55,8.16 -23.91,18.01 -33.75,29.22 l -59.22,-58.34 c -1.87,-1.82 -1.72,-4.86 0.27,-6.52 l 10.83,-9.06 -58.97,-59.72 c -1.8,-1.82 -1.66,-4.82 0.31,-6.48 l 35.06,-29.45 c 1.99,-1.66 4.94,-1.27 6.44,0.82 z m -83.06,80.76 c -2.11,-1.46 -5.04,-0.8 -6.34,1.41 l -22.88,39.66 c -1.29,2.24 -0.39,5.09 1.93,6.19 l 75.84,35.95 -7.09,12.22 c -1.31,2.26 -0.39,5.15 1.99,6.23 l 75.56,34.55 c 5.47,-14.05 12.79,-27.15 21.73,-38.98 L 237.95,315.65 Z m -55.87,107.8 c 0.45,-2.54 2.95,-4.16 5.45,-3.51 l 165.49,43.23 c -4.29,13.98 -6.68,28.77 -7.01,44.09 l -82.86,-6.65 c -2.6,-0.21 -4.45,-2.61 -4,-5.17 l 2.48,-13.9 -83.55,-7.83 c -2.56,-0.25 -4.39,-2.63 -3.94,-5.17 l 7.93,-45.1 z m -6.25,111.76 c -2.56,0.25 -4.39,2.63 -3.94,5.17 l 7.96,45.1 c 0.45,2.54 2.97,4.16 5.45,3.51 l 81.2,-21.22 2.42,13.9 c 0.45,2.56 3.01,4.18 5.52,3.49 l 80.09,-22.11 c -4.72,-13.88 -7.63,-28.56 -8.41,-43.84 l -170.28,16.02 z m 26.49,118.51 c -1.29,-2.24 -0.41,-5.09 1.93,-6.2 l 154.52,-73.27 c 5.88,13.86 13.66,26.72 22.96,38.29 l -67.72,48.17 c -2.11,1.52 -5.09,0.86 -6.38,-1.39 l -7.03,-12.24 -69.04,47.72 c -2.13,1.48 -5.04,0.82 -6.34,-1.41 l -22.9,-39.66 z M 389.54,621.6 269.35,743.37 c -1.8,1.82 -1.66,4.82 0.31,6.48 l 35.08,29.43 c 1.97,1.66 4.94,1.27 6.44,-0.82 l 48.55,-68.45 10.81,9.11 c 1.99,1.68 5,1.27 6.48,-0.86 l 47.14,-68.39 c -12.79,-7.79 -24.42,-17.33 -34.59,-28.22 l -0.02,-0.04 z M 365.8,817.13 c -2.42,-0.88 -3.57,-3.65 -2.5,-5.99 h 0.02 l 71.29,-155.52 c 13.12,6.71 27.27,11.71 42.16,14.66 l -20.91,80.41 c -0.66,2.52 -3.34,3.94 -5.78,3.04 l -13.27,-4.86 -22.23,80.94 c -0.68,2.48 -3.34,3.86 -5.76,2.97 z M 488.57,672.15 v 0 c 0,0 -0.02,0 -0.02,0 z m 0,0 -13.82,170.55 c -0.2,2.56 1.82,4.78 4.39,4.78 h 45.78 c 2.59,0 4.61,-2.22 4.39,-4.78 l -6.81,-83.67 h 14.13 c 2.6,0.04 4.65,-2.22 4.41,-4.8 l -7.85,-82.7 c -8.06,1.23 -16.32,1.86 -24.73,1.86 -6.74,0 -13.36,-0.45 -19.89,-1.25 z m 165.1,-461.68 c 1.07,-2.34 -0.08,-5.11 -2.5,-5.99 l -43.02,-15.65 c -2.42,-0.88 -5.08,0.49 -5.76,2.97 l -22.23,80.94 -13.27,-4.86 c -2.44,-0.9 -5.13,0.51 -5.78,3.03 l -20.91,80.41 c 14.89,2.95 29.03,7.96 42.16,14.66 l 71.31,-155.52 z m 93.95,67.78 -120.19,121.77 -0.02,-0.04 c -10.17,-10.89 -21.79,-20.42 -34.59,-28.22 l 47.14,-68.39 c 1.48,-2.13 4.49,-2.54 6.48,-0.86 l 10.81,9.1 48.55,-68.45 c 1.5,-2.09 4.47,-2.48 6.44,-0.82 l 35.08,29.43 c 1.97,1.66 2.11,4.66 0.31,6.48 z m 65.1,95.83 c 2.34,-1.11 3.22,-3.96 1.93,-6.19 l -22.9,-39.66 c -1.29,-2.24 -4.2,-2.89 -6.34,-1.42 l -69.04,47.72 -7.03,-12.24 c -1.29,-2.26 -4.26,-2.91 -6.38,-1.39 l -67.72,48.17 c 9.31,11.57 17.08,24.42 22.97,38.29 l 154.51,-73.27 z m 24.38,62.07 7.96,45.1 0.02,0.02 c 0.45,2.54 -1.37,4.92 -3.94,5.17 l -170.3,16 c -0.78,-15.28 -3.69,-29.96 -8.4,-43.84 l 80.09,-22.11 c 2.5,-0.7 5.06,0.92 5.52,3.49 l 2.42,13.9 81.2,-21.22 c 2.48,-0.66 5,0.96 5.45,3.51 z m -7.69,165.51 c 2.5,0.66 5,-0.96 5.45,-3.51 l 7.94,-45.09 c 0.45,-2.54 -1.37,-4.92 -3.94,-5.17 l -83.55,-7.83 2.48,-13.9 c 0.45,-2.56 -1.39,-4.96 -4,-5.17 l -82.85,-6.65 c -0.33,15.32 -2.75,30.11 -7.01,44.09 l 165.49,43.21 v 0.02 z m -44.08,102.88 c -1.29,2.22 -4.22,2.87 -6.33,1.41 l 0.02,-0.02 -140.76,-97.22 c 8.94,-11.83 16.26,-24.93 21.73,-38.98 l 75.56,34.56 c 2.38,1.09 3.3,3.98 1.99,6.23 l -7.1,12.22 75.85,35.95 c 2.32,1.11 3.22,3.96 1.93,6.19 l -22.88,39.66 z M 596.92,647.2 695.93,786.73 c 1.5,2.09 4.45,2.48 6.44,0.82 l 35.06,-29.45 c 1.97,-1.66 2.11,-4.66 0.31,-6.48 l -58.97,-59.71 10.83,-9.06 c 1.99,-1.66 2.13,-4.7 0.27,-6.52 l -59.21,-58.34 c -9.84,11.22 -21.2,21.06 -33.75,29.22 h 0.02 z m -0.86,189.98 c -2.42,0.88 -5.09,-0.49 -5.76,-2.97 L 544.97,669.23 c 14.78,-3.38 28.79,-8.76 41.73,-15.87 l 35.65,75.03 c 1.13,2.36 -0.04,5.17 -2.48,6.05 l -13.29,4.8 35,76.29 c 1.07,2.34 -0.08,5.11 -2.5,5.99 l -43.02,15.67 z"
           id="path1"
           style="fill-rule:evenodd" />
      </g>
      <g
         id="Wordmark_Black">
        <path
           d="m 2143.77,611.74 c -56.49,0 -96.43,-43.93 -96.43,-101.56 0,-57.63 39.94,-101.56 96.43,-101.56 56.49,0 95.29,43.93 95.29,101.56 0,57.63 -39.37,101.56 -95.29,101.56 z m -9.13,60.48 c 45.65,0 84.45,-17.69 108.98,-54.78 4.56,35.95 30.81,49.07 63.9,49.07 h 26.25 v -57.06 h -11.41 c -18.83,0 -23.39,-9.13 -23.39,-30.24 V 353.83 h -60.48 v 46.22 c -20.54,-32.52 -59.34,-51.92 -103.84,-51.92 -79.31,0 -152.34,66.19 -152.34,162.04 0,95.85 73.03,162.04 152.34,162.04 z m -311.53,-78.17 c 0,51.35 31.95,72.46 70.18,72.46 h 73.6 v -57.06 h -53.63 c -22.25,0 -26.82,-8.56 -26.82,-30.24 V 410.89 h 80.45 v -57.06 h -80.45 V 248.84 h -63.33 v 345.2 z m -288.14,72.46 h 63.33 V 532.43 h 21.11 l 107.84,134.08 h 79.88 L 1669.62,496.48 1775.18,353.84 h -71.32 l -86.16,120.39 h -19.4 V 248.86 h -63.33 V 666.52 Z M 1329.56,348.13 c -88.44,0 -161.47,66.19 -161.47,162.04 0,95.85 73.03,162.04 161.47,162.04 88.44,0 161.47,-66.19 161.47,-162.04 0,-95.85 -73.03,-162.04 -161.47,-162.04 z m 0,263.61 c -56.49,0 -96.43,-43.93 -96.43,-101.56 0,-57.63 39.94,-101.56 96.43,-101.56 56.49,0 96.43,43.93 96.43,101.56 0,57.63 -39.94,101.56 -96.43,101.56 z"
           id="path2" />
      </g>
    </g>
    <rect
       class="cls-1"
       width="2507.8601"
       height="1021.57"
       id="rect2"
       style="fill:none"
       x="0"
       y="0" />
  </g>
</svg>
