<svg width="191" height="26" viewBox="0 0 191 26" fill="none" xmlns="http://www.w3.org/2000/svg">
<path d="M7.84288 17.2052C5.67493 17.2052 3.92144 15.4398 3.92144 13.257C3.92144 11.0743 5.67493 9.30887 7.84288 9.30887C10.0108 9.30887 11.7643 11.0743 11.7643 13.257C11.7962 15.4077 10.0427 17.2052 7.84288 17.2052ZM7.84288 5.32861C3.50698 5.32861 0 8.85949 0 13.2249C0 17.5904 3.50698 21.1213 7.84288 21.1213C12.1788 21.1213 15.6858 17.5904 15.6858 13.2249C15.7176 8.85949 12.2107 5.32861 7.84288 5.32861Z" fill="#00287A"/>
<path d="M21.6797 15.8889C21.6797 15.247 22.4448 14.9581 22.8593 15.4075C24.8359 17.4297 28.0879 20.8964 28.0879 20.8964C28.1197 20.9285 28.1835 21.0248 28.3748 21.089C28.4386 21.1211 28.5661 21.1211 28.7255 21.1211H32.2644C32.902 21.1211 33.0933 20.3828 32.8063 19.9976L26.9082 13.9309L26.5894 13.6099C25.9199 12.8075 25.9837 12.4865 26.7488 11.684L31.4036 6.45188C31.6905 6.06669 31.4992 5.36051 30.8616 5.36051H27.6734C27.5459 5.36051 27.4502 5.36051 27.3546 5.39261C27.1633 5.45681 27.0995 5.52101 27.0358 5.58521C27.0358 5.58521 24.4534 8.40991 22.8593 10.1111C22.4129 10.5926 21.6478 10.2716 21.6478 9.62967V0.641978C21.6478 0.192593 21.2652 0 20.9783 0H18.364C17.9176 0 17.6945 0.28889 17.6945 0.57778V20.4791C17.6945 20.9285 18.077 21.0569 18.3959 21.0569H21.0101C21.4246 21.0569 21.6797 20.768 21.6797 20.447V20.2544V15.8889Z" fill="#00287A"/>
<path d="M43.1042 20.3828L42.8173 17.7507C42.7854 17.3976 42.4347 17.1408 42.084 17.205C41.8927 17.2371 41.6696 17.2371 41.4783 17.2371C39.3741 17.2371 37.6844 15.6001 37.5568 13.4815V13.2568V10.0469C37.5568 9.62966 37.8757 9.27658 38.2901 9.27658H41.7971C42.0521 9.27658 42.4347 9.05188 42.4347 8.6025V6.09879C42.4347 5.6173 42.1159 5.36051 41.829 5.36051H38.2901C37.8757 5.36051 37.5568 5.07162 37.525 4.65434V0.641978C37.525 0.385187 37.3337 0 36.8554 0H34.2411C33.9223 0 33.6035 0.192593 33.6035 0.609879V13.4815C33.6992 17.7507 37.2061 21.1853 41.4464 21.1853C41.7971 21.1853 42.1478 21.1532 42.4985 21.1211C42.9129 21.0569 43.1361 20.7359 43.1042 20.3828Z" fill="#00287A"/>
<path d="M51.6163 17.2051C49.4484 17.2051 47.6949 15.4396 47.6949 13.2569C47.6949 11.0742 49.4484 9.30875 51.6163 9.30875C53.7843 9.30875 55.5378 11.0742 55.5378 13.2569C55.5378 15.4075 53.7843 17.2051 51.6163 17.2051ZM62.0416 17.0767C59.8099 17.0767 59.4911 16.2742 59.4911 13.2569V13.2248V6.00256C59.4911 5.74577 59.2998 5.32849 58.7897 5.32849H56.1754C55.8566 5.32849 55.474 5.58528 55.474 6.00256V6.32355C54.3263 5.64947 53.0191 5.29639 51.5845 5.29639C47.2486 5.29639 43.7416 8.82726 43.7416 13.1927C43.7416 17.5582 47.2486 21.089 51.5845 21.089C53.5292 21.089 55.3146 20.3508 56.6855 19.1952C57.4188 20.3187 58.5984 21.089 60.4794 21.089C60.7982 21.089 62.488 21.1532 62.488 20.3508V17.5261C62.488 17.3335 62.2967 17.0767 62.0416 17.0767Z" fill="#00287A"/>
<path d="M82.6371 5.32861V21.2176H81.1068V13.7706H71.7654V21.1855H70.2032V5.32861H71.7654V12.3904H81.1068V5.32861H82.6371Z" fill="#646E75"/>
<path d="M91.1173 21.4424C90.2883 21.4424 89.4913 21.2819 88.7899 20.9609C88.0885 20.6399 87.4828 20.1905 86.9727 19.6448C86.4626 19.0991 86.0481 18.4572 85.7612 17.7189C85.4742 16.9806 85.3148 16.2102 85.3148 15.3757C85.3148 14.5411 85.4742 13.7707 85.7612 13.0645C86.0481 12.3263 86.4626 11.7164 86.9727 11.1707C87.4828 10.625 88.0885 10.2077 88.7899 9.88676C89.4913 9.56577 90.2565 9.40527 91.0854 9.40527C91.9143 9.40527 92.7114 9.56577 93.4127 9.88676C94.1141 10.2077 94.7199 10.6571 95.23 11.2028C95.7401 11.7485 96.1227 12.3905 96.4096 13.0966C96.6966 13.8028 96.8241 14.5732 96.8241 15.3757C96.8241 15.5041 96.8241 15.6004 96.8241 15.7288C96.8241 15.8571 96.8241 15.9213 96.7922 15.9855H86.877C86.9089 16.6275 87.0683 17.2053 87.3234 17.7189C87.5784 18.2325 87.8972 18.7139 88.2798 19.0991C88.6624 19.4843 89.1087 19.7732 89.587 19.9979C90.0971 20.2226 90.6072 20.3189 91.181 20.3189C91.5636 20.3189 91.9143 20.2547 92.2969 20.1584C92.6795 20.0621 92.9983 19.9016 93.3171 19.7411C93.6359 19.5485 93.9228 19.3559 94.146 19.067C94.4011 18.8102 94.5924 18.5214 94.7199 18.2004L96.027 18.5535C95.8358 18.9707 95.6126 19.388 95.2619 19.7411C94.9431 20.0942 94.5605 20.3831 94.1141 20.672C93.6997 20.9288 93.2215 21.1214 92.6795 21.2819C92.2331 21.3461 91.6911 21.4424 91.1173 21.4424ZM95.3894 14.7658C95.3575 14.1238 95.1981 13.5781 94.9431 13.0645C94.688 12.551 94.4011 12.1016 94.0185 11.7485C93.6359 11.3633 93.1896 11.0744 92.7113 10.8818C92.2012 10.6892 91.6911 10.5608 91.1173 10.5608C90.5434 10.5608 90.0333 10.6571 89.5232 10.8818C89.0131 11.1065 88.5667 11.3954 88.216 11.7485C87.8335 12.1337 87.5465 12.5831 87.2915 13.0966C87.0683 13.6102 86.9408 14.188 86.877 14.7979H95.3894V14.7658Z" fill="#646E75"/>
<path d="M99.2793 4.87891H100.778V21.1851H99.2793V4.87891Z" fill="#646E75"/>
<path d="M110.151 21.4422C109.163 21.4422 108.302 21.1854 107.568 20.704C106.835 20.1904 106.229 19.5805 105.751 18.8101V26.0003H104.253V9.56564H105.592V11.8126C106.07 11.0743 106.676 10.4965 107.441 10.0471C108.206 9.59774 109.003 9.37305 109.896 9.37305C110.693 9.37305 111.426 9.53354 112.096 9.88663C112.765 10.2076 113.339 10.657 113.817 11.2348C114.296 11.8126 114.678 12.4545 114.965 13.1607C115.252 13.899 115.379 14.6373 115.379 15.4076C115.379 16.2422 115.252 17.0126 114.997 17.7188C114.742 18.457 114.391 19.099 113.913 19.6447C113.435 20.1904 112.893 20.6398 112.255 20.9607C111.617 21.2817 110.916 21.4422 110.151 21.4422ZM109.736 20.0941C110.374 20.0941 110.916 19.9657 111.426 19.6768C111.936 19.42 112.383 19.0669 112.733 18.6175C113.084 18.1681 113.371 17.6867 113.562 17.1089C113.754 16.5632 113.849 15.9854 113.849 15.3755C113.849 14.7336 113.754 14.1558 113.53 13.578C113.307 13.0002 113.02 12.5187 112.606 12.0694C112.223 11.6521 111.777 11.299 111.235 11.0422C110.725 10.7854 110.151 10.657 109.545 10.657C109.163 10.657 108.748 10.7212 108.334 10.8817C107.919 11.0422 107.505 11.2348 107.154 11.5237C106.803 11.7805 106.485 12.1015 106.229 12.4545C105.974 12.8076 105.815 13.1607 105.751 13.5459V17.1089C105.943 17.5262 106.166 17.9113 106.421 18.2644C106.708 18.6175 106.995 18.9385 107.345 19.1953C107.696 19.4521 108.079 19.6768 108.461 19.8052C108.876 20.0299 109.29 20.0941 109.736 20.0941Z" fill="#646E75"/>
<path d="M122.872 13.1604C122.872 12.1974 123.031 11.2665 123.382 10.3036C123.701 9.37269 124.211 8.50602 124.848 7.76775C125.486 7.02947 126.283 6.41959 127.208 5.93811C128.132 5.45663 129.184 5.23193 130.396 5.23193C131.799 5.23193 133.01 5.55292 133.998 6.1949C134.987 6.83688 135.72 7.67145 136.198 8.69861L134.987 9.46899C134.732 8.9554 134.413 8.50602 134.062 8.15293C133.711 7.79984 133.297 7.51095 132.883 7.28626C132.468 7.06157 132.054 6.90108 131.607 6.80478C131.161 6.70848 130.715 6.64428 130.3 6.64428C129.344 6.64428 128.515 6.83688 127.781 7.22206C127.048 7.60725 126.442 8.12083 125.964 8.73071C125.454 9.37269 125.103 10.0468 124.848 10.8492C124.593 11.6196 124.466 12.4221 124.466 13.2246C124.466 14.0912 124.625 14.9579 124.912 15.7604C125.231 16.5628 125.645 17.269 126.156 17.911C126.666 18.5209 127.303 19.0345 128.037 19.3875C128.77 19.7406 129.535 19.9332 130.364 19.9332C130.81 19.9332 131.257 19.869 131.735 19.7727C132.213 19.6764 132.659 19.4838 133.074 19.227C133.52 18.9703 133.903 18.6814 134.285 18.2962C134.668 17.9431 134.955 17.4937 135.21 16.9801L136.485 17.6542C136.23 18.2641 135.879 18.7777 135.433 19.227C134.987 19.6764 134.477 20.0616 133.903 20.3826C133.329 20.7036 132.755 20.9283 132.117 21.0888C131.48 21.2493 130.874 21.3456 130.268 21.3456C129.184 21.3456 128.196 21.1209 127.303 20.6394C126.411 20.1579 125.614 19.548 124.976 18.7777C124.338 18.0073 123.828 17.1406 123.446 16.1777C123.063 15.1826 122.872 14.1875 122.872 13.1604Z" fill="#646E75"/>
<path d="M143.818 21.4424C142.989 21.4424 142.192 21.2819 141.49 20.9609C140.789 20.6399 140.183 20.1905 139.673 19.6448C139.163 19.0991 138.749 18.4572 138.462 17.7189C138.175 16.9806 138.015 16.2102 138.015 15.3757C138.015 14.5411 138.175 13.7707 138.462 13.0645C138.749 12.3263 139.163 11.7164 139.673 11.1707C140.183 10.625 140.789 10.2077 141.49 9.88676C142.192 9.56577 142.957 9.40527 143.786 9.40527C144.615 9.40527 145.412 9.56577 146.113 9.88676C146.815 10.2077 147.42 10.6571 147.93 11.2028C148.441 11.7485 148.823 12.3905 149.11 13.0966C149.397 13.8028 149.525 14.5732 149.525 15.3757C149.525 15.5041 149.525 15.6004 149.525 15.7288C149.525 15.8571 149.525 15.9213 149.493 15.9855H139.577C139.609 16.6275 139.769 17.2053 140.024 17.7189C140.279 18.2325 140.598 18.7139 140.98 19.0991C141.363 19.4843 141.809 19.7732 142.287 19.9979C142.797 20.2226 143.308 20.3189 143.881 20.3189C144.264 20.3189 144.615 20.2547 144.997 20.1584C145.38 20.0621 145.699 19.9016 146.018 19.7411C146.336 19.5485 146.623 19.3559 146.846 19.067C147.102 18.8102 147.293 18.5214 147.42 18.2004L148.727 18.5535C148.536 18.9707 148.313 19.388 147.962 19.7411C147.644 20.0942 147.261 20.3831 146.815 20.672C146.4 20.9288 145.922 21.1214 145.38 21.2819C144.934 21.3461 144.392 21.4424 143.818 21.4424ZM148.09 14.7658C148.058 14.1238 147.899 13.5781 147.644 13.0645C147.388 12.551 147.102 12.1016 146.719 11.7485C146.336 11.3633 145.89 11.0744 145.412 10.8818C144.902 10.6892 144.392 10.5608 143.818 10.5608C143.244 10.5608 142.734 10.6571 142.224 10.8818C141.714 11.1065 141.267 11.3954 140.916 11.7485C140.534 12.1337 140.247 12.5831 139.992 13.0966C139.769 13.6102 139.641 14.188 139.577 14.7979H148.09V14.7658Z" fill="#646E75"/>
<path d="M161.608 21.2175H160.109V14.7015C160.109 13.3212 159.918 12.294 159.504 11.6842C159.089 11.0422 158.484 10.7533 157.623 10.7533C157.176 10.7533 156.73 10.8496 156.284 11.0101C155.837 11.1706 155.423 11.3953 155.04 11.7163C154.658 12.0052 154.339 12.3582 154.02 12.7755C153.733 13.1928 153.51 13.6422 153.382 14.0916V21.2175H151.884V9.56564H153.255V12.1977C153.733 11.3632 154.403 10.657 155.295 10.1434C156.188 9.62984 157.144 9.37305 158.165 9.37305C158.802 9.37305 159.344 9.50144 159.791 9.72613C160.237 9.95083 160.588 10.3039 160.843 10.7212C161.098 11.1385 161.289 11.6842 161.417 12.294C161.544 12.936 161.608 13.6101 161.608 14.3805V21.2175Z" fill="#646E75"/>
<path d="M170.248 20.6395C170.152 20.6716 170.025 20.7358 169.865 20.8321C169.706 20.8963 169.514 20.9926 169.291 21.0568C169.068 21.121 168.813 21.1851 168.526 21.2493C168.239 21.3135 167.952 21.3456 167.633 21.3456C167.315 21.3456 166.996 21.3135 166.709 21.2172C166.422 21.121 166.167 20.9926 165.944 20.8C165.721 20.6074 165.529 20.3827 165.402 20.0938C165.274 19.8049 165.21 19.4839 165.21 19.0987V10.753H163.616V9.53325H165.21V5.61719H166.709V9.56535H169.387V10.7851H166.709V18.7135C166.741 19.1308 166.9 19.4518 167.155 19.6765C167.442 19.8691 167.729 19.9654 168.112 19.9654C168.526 19.9654 168.909 19.9012 169.259 19.7407C169.578 19.6123 169.801 19.4839 169.897 19.4518L170.248 20.6395Z" fill="#646E75"/>
<path d="M176.847 21.4424C176.018 21.4424 175.221 21.2819 174.52 20.9609C173.819 20.6399 173.213 20.1905 172.703 19.6448C172.193 19.0991 171.778 18.4572 171.491 17.7189C171.204 16.9806 171.045 16.2102 171.045 15.3757C171.045 14.5411 171.204 13.7707 171.491 13.0645C171.778 12.3263 172.193 11.7164 172.703 11.1707C173.213 10.625 173.819 10.2077 174.52 9.88676C175.221 9.56577 175.987 9.40527 176.815 9.40527C177.644 9.40527 178.441 9.56577 179.143 9.88676C179.844 10.2077 180.45 10.6571 180.96 11.2028C181.47 11.7485 181.853 12.3905 182.14 13.0966C182.427 13.8028 182.554 14.5732 182.554 15.3757C182.554 15.5041 182.554 15.6004 182.554 15.7288C182.554 15.8571 182.554 15.9213 182.522 15.9855H172.607C172.639 16.6275 172.798 17.2053 173.053 17.7189C173.309 18.2325 173.627 18.7139 174.01 19.0991C174.392 19.4843 174.839 19.7732 175.317 19.9979C175.827 20.2226 176.337 20.3189 176.911 20.3189C177.294 20.3189 177.644 20.2547 178.027 20.1584C178.41 20.0621 178.728 19.9016 179.047 19.7411C179.366 19.5485 179.653 19.3559 179.876 19.067C180.131 18.8102 180.322 18.5214 180.45 18.2004L181.757 18.5535C181.566 18.9707 181.343 19.388 180.992 19.7411C180.673 20.0942 180.291 20.3831 179.844 20.672C179.43 20.9288 178.952 21.1214 178.41 21.2819C177.963 21.3461 177.421 21.4424 176.847 21.4424ZM181.12 14.7658C181.088 14.1238 180.928 13.5781 180.673 13.0645C180.418 12.551 180.131 12.1016 179.749 11.7485C179.366 11.3633 178.92 11.0744 178.441 10.8818C177.931 10.6892 177.421 10.5608 176.847 10.5608C176.274 10.5608 175.763 10.6571 175.253 10.8818C174.743 11.1065 174.297 11.3954 173.946 11.7485C173.564 12.1337 173.277 12.5831 173.022 13.0966C172.798 13.6102 172.671 14.188 172.607 14.7979H181.12V14.7658Z" fill="#646E75"/>
<path d="M190.652 10.9138C189.632 10.9459 188.739 11.2348 187.974 11.7484C187.209 12.2941 186.699 13.0323 186.38 13.9632V21.2176H184.881V9.56566H186.316V12.3583C186.73 11.4595 187.336 10.7533 188.038 10.2718C188.771 9.75826 189.536 9.50146 190.365 9.50146C190.492 9.50146 190.588 9.50146 190.652 9.53356V10.9138Z" fill="#646E75"/>
</svg>
