<svg width="21" height="21" viewBox="0 0 21 21" fill="none" xmlns="http://www.w3.org/2000/svg">
<circle cx="10.3162" cy="10.3162" r="10.3162" fill="#1662DD"/>
<path d="M9.27719 6.07267C9.27719 5.60174 9.3177 5.30523 9.39872 5.18314C9.48401 5.06105 9.66311 5 9.93603 5C10.2004 5 10.3753 5.05233 10.4606 5.15698C10.5458 5.25727 10.5885 5.49927 10.5885 5.88299C10.5885 6.25799 10.548 6.49128 10.467 6.58285C10.3902 6.67006 10.2132 6.71366 9.93603 6.71366C9.66311 6.71366 9.48401 6.67224 9.39872 6.58939C9.3177 6.50654 9.27719 6.3343 9.27719 6.07267ZM10.4606 13.0778H12.5139C12.6802 13.0778 12.8017 13.1148 12.8785 13.189C12.9595 13.2587 13 13.3721 13 13.5291C13 13.7078 12.9616 13.8321 12.8849 13.9019C12.8124 13.9673 12.6759 14 12.4755 14H7.51173C7.34115 14 7.21322 13.9608 7.12793 13.8823C7.04264 13.8038 7 13.686 7 13.5291C7 13.3765 7.04478 13.2631 7.13433 13.189C7.22388 13.1148 7.35821 13.0778 7.53731 13.0778H9.48827V8.88517H8.24094C8.0661 8.88517 7.93177 8.84593 7.83795 8.76744C7.7484 8.68459 7.70362 8.56686 7.70362 8.41424C7.70362 8.26163 7.74627 8.14826 7.83156 8.07413C7.91684 7.99564 8.04478 7.9564 8.21535 7.9564H10.0896C10.2047 7.9564 10.2942 7.98038 10.3582 8.02834C10.4264 8.07631 10.4606 8.14172 10.4606 8.22456V13.0778Z" fill="white"/>
</svg>
