<?xml version="1.0" encoding="utf-8"?>
<!-- Generator: Adobe Illustrator 26.0.2, SVG Export Plug-In . SVG Version: 6.00 Build 0)  -->
<svg version="1.1" xmlns="http://www.w3.org/2000/svg" xmlns:xlink="http://www.w3.org/1999/xlink" x="0px" y="0px"
	 viewBox="0 0 1256 817" style="enable-background:new 0 0 1256 817;" xml:space="preserve">
<style type="text/css">
	.st0{fill:#002979;stroke:#002979;stroke-miterlimit:10;}
	.st1{fill:#FFFFFF;}
	.st2{font-family:'Arial-BoldMT';}
	.st3{font-size:21px;}
	.st4{fill:#002979;}
	.st5{fill:#00297A;}
	.st6{fill:#002979;stroke:#FFFFFF;stroke-width:1.4126;stroke-miterlimit:10;}
	.st7{fill:none;stroke:#000000;stroke-width:1.5939;stroke-miterlimit:10;stroke-dasharray:9.5637;}
	.st8{fill:#EB1F3A;}
	.st9{fill:url(#path4545_00000126300385065629042210000002260730993783372961_);}
	.st10{fill:url(#path4565_00000060730200858164313960000017401268463985049782_);}
	.st11{fill:#383434;}
	.st12{fill:none;stroke:#002979;stroke-width:2;stroke-miterlimit:10;}
	.st13{fill-rule:evenodd;clip-rule:evenodd;fill:#EA3E23;}
	.st14{filter:url(#Adobe_OpacityMaskFilter);}
	.st15{fill-rule:evenodd;clip-rule:evenodd;fill:#FFFFFF;}
	.st16{mask:url(#b_00000006671397583946962290000018137403054928022404_);fill-rule:evenodd;clip-rule:evenodd;fill:#00A1E0;}
	.st17{fill-rule:evenodd;clip-rule:evenodd;fill:#FFFFFE;}
	.st18{fill:#0071F7;}
	.st19{filter:url(#Adobe_OpacityMaskFilter_00000018937678326200362080000002792761783858025612_);}
	.st20{mask:url(#b_00000091704483636123391510000007076879311947661487_);fill-rule:evenodd;clip-rule:evenodd;fill:#00A1E0;}
	.st21{enable-background:new    ;}
	.st22{font-family:'ArialMT';}
	.st23{font-size:14px;}
</style>
<g id="Non-text_elements">
	<g>
		<circle class="st0" cx="158.3" cy="767.4" r="18"/>
		<text transform="matrix(1 0 0 1 152.119 774.333)" class="st1 st2 st3">2</text>
	</g>
	<g>
		<circle class="st0" cx="581.2" cy="254.8" r="18"/>
		<text transform="matrix(1 0 0 1 575.0415 261.7367)" class="st1 st2 st3">4</text>
	</g>
	<g>
		<circle class="st0" cx="581.2" cy="766.4" r="18"/>
		<text transform="matrix(1 0 0 1 575.0415 773.333)" class="st1 st2 st3">3</text>
	</g>
	<g>
		<circle class="st0" cx="707.4" cy="564.7" r="18"/>
		<text transform="matrix(1 0 0 1 701.2211 571.5724)" class="st1 st2 st3">5</text>
	</g>
	<g>
		<circle class="st0" cx="158.3" cy="131.2" r="18"/>
		<text transform="matrix(1 0 0 1 152.119 138.1391)" class="st1 st2 st3">1</text>
	</g>
	<g>
		<path class="st4" d="M643.7,730.5h-99c-15.7-0.6-28-13.8-27.5-29.5V485.1c-0.5-15.7,11.8-28.9,27.5-29.5h99
			c15.7,0.6,28,13.8,27.5,29.5v216.1C671.6,716.8,659.4,729.9,643.7,730.5z M544.7,466.4c-9.7,0.6-17.1,8.9-16.5,18.6c0,0,0,0,0,0.1
			v216.1c-0.5,9.6,6.9,17.9,16.5,18.5h99c9.7-0.6,17.1-8.9,16.5-18.6c0,0,0,0,0-0.1V485.1c0.5-9.6-6.9-17.9-16.5-18.5L544.7,466.4z"
			/>
		<rect x="572.2" y="697.4" class="st4" width="44" height="11"/>
		<path class="st4" d="M594.2,477.4L594.2,477.4c6.1,0,11,4.9,11,11l0,0c0,6.1-4.9,11-11,11l0,0c-6.1,0-11-4.9-11-11l0,0
			C583.2,482.3,588.1,477.4,594.2,477.4z"/>
	</g>
	<g>
		<g id="Logo">
			<g>
				<path class="st5" d="M1002.5,279.6c-5.2,0-9.4,4.2-9.4,9.4s4.2,9.4,9.4,9.4c5.2,0,9.4-4.2,9.4-9.4S1007.6,279.6,1002.5,279.6z
					 M1002.5,293.6c-2.6,0-4.7-2.1-4.7-4.7s2.1-4.7,4.7-4.7c2.6,0,4.7,2.1,4.7,4.7S1005,293.6,1002.5,293.6z"/>
				<path class="st5" d="M1018.9,292.1c0-0.8,0.9-1.1,1.4-0.6c2.4,2.4,6.2,6.5,6.2,6.5c0.1,0.1,0.1,0.2,0.4,0.2
					c0.1,0.1,0.3,0.1,0.4,0.1h4.2c0.8,0,1-0.9,0.7-1.3l-7-7.2l-0.4-0.4c-0.8-1-0.7-1.3,0.2-2.3l5.6-6.2c0.4-0.5,0.2-1.3-0.7-1.3
					h-3.8c-0.2,0-0.3,0-0.4,0.1c-0.3,0.1-0.3,0.2-0.4,0.2c0,0-3.1,3.3-5,5.4c-0.5,0.6-1.5,0.2-1.5-0.6V274c0-0.6-0.5-0.8-0.8-0.8
					h-3.1c-0.6,0-0.8,0.4-0.8,0.7v23.6c0,0.6,0.5,0.7,0.8,0.7h3.1c0.5,0,0.8-0.4,0.8-0.7v-0.3V292.1z"/>
				<path class="st5" d="M1044.4,297.5l-0.4-3.2c-0.1-0.5-0.5-0.7-0.9-0.7c-0.3,0.1-0.5,0.1-0.7,0.1c-2.5,0-4.5-2-4.7-4.4
					c0-0.1,0-0.2,0-0.3v-3.8c0-0.5,0.4-0.9,0.9-0.9h4.2c0.3,0,0.8-0.3,0.8-0.8v-3c0-0.6-0.4-0.9-0.7-0.9h-4.2
					c-0.5,0-0.9-0.4-0.9-0.9v-4.7c0-0.3-0.2-0.8-0.8-0.8h-3.1c-0.4,0-0.8,0.3-0.8,0.7c0,0,0,15.1,0,15.2c0.2,5.1,4.3,9.1,9.4,9.1
					c0.4,0,0.9-0.1,1.3-0.1C1044.2,298.3,1044.5,297.9,1044.4,297.5z"/>
				<path class="st5" d="M1067,293.5c-2.7,0-3.1-1-3.1-4.5c0,0,0,0,0-0.1v-8.5c0-0.3-0.2-0.8-0.8-0.8h-3.1c-0.4,0-0.8,0.3-0.8,0.8
					v0.4c-1.4-0.8-3-1.2-4.6-1.2c-5.2,0-9.4,4.2-9.4,9.4c0,5.2,4.2,9.4,9.4,9.4c2.3,0,4.5-0.9,6.1-2.3c0.9,1.4,2.3,2.2,4.5,2.3
					c0.4,0,2.4,0.1,2.4-0.9v-3.3C1067.5,293.8,1067.3,293.5,1067,293.5z M1054.6,293.6c-2.6,0-4.7-2.1-4.7-4.7
					c0-2.6,2.1-4.7,4.7-4.7c2.6,0,4.7,2.1,4.7,4.7C1059.3,291.5,1057.2,293.6,1054.6,293.6z"/>
			</g>
		</g>
		<g>
			<path class="st4" d="M1078.7,426.4h-99c-15.7-0.6-28-13.8-27.5-29.5V181.1c-0.5-15.7,11.8-28.9,27.5-29.5h99
				c15.7,0.6,28,13.8,27.5,29.5v216.1C1106.6,412.8,1094.3,425.9,1078.7,426.4z M979.6,162.4c-9.7,0.6-17.1,8.9-16.5,18.6
				c0,0,0,0,0,0.1v216.1c-0.5,9.6,6.9,17.9,16.5,18.5h99c9.7-0.6,17.1-8.9,16.5-18.6c0,0,0,0,0-0.1V181.1
				c0.5-9.6-6.9-17.9-16.5-18.5L979.6,162.4z"/>
			<rect x="1007.1" y="393.4" class="st4" width="44" height="11"/>
			<path class="st4" d="M1029.1,173.4L1029.1,173.4c6.1,0,11,4.9,11,11l0,0c0,6.1-4.9,11-11,11l0,0c-6.1,0-11-4.9-11-11l0,0
				C1018.1,178.3,1023.1,173.4,1029.1,173.4z"/>
		</g>
	</g>
	<path class="st6" d="M257.9,378.5H73.1c-26.7,0-48.4-21.7-48.4-48.4c0-26.7,21.7-48.4,48.4-48.4c1.7,0,3.4,0.1,5,0.3
		c-0.4-3-0.6-6.1-0.6-9.1c0.1-38.9,31.7-70.3,70.6-70.2c33.1,0.1,61.6,23.2,68.6,55.5c4.7-1.9,9.7-2.9,14.8-3
		c21.8-0.1,39.5,17.5,39.6,39.3c0,8.2-2.5,16.2-7.2,22.9c16.7,3.3,27.5,19.6,24.2,36.2C285.1,368.2,272.5,378.5,257.9,378.5z
		 M73.1,290.6c-21.9,0-39.6,17.7-39.6,39.6s17.7,39.6,39.6,39.6h184.7c12.1,0,22-9.8,22-22c0-12.1-9.8-22-22-22
		c-1,0-1.9,0.1-2.9,0.3c-2,0.3-3.9-0.8-4.8-2.5c-0.8-1.7-0.4-3.8,1-5.1c13-10.8,14.8-30.2,3.9-43.2c-5.8-7-14.5-11.1-23.7-11
		c-5.6,0-11.1,1.6-15.9,4.5c-2.1,1.2-4.8,0.6-6-1.5c-0.3-0.5-0.5-1.1-0.6-1.7c-4-33.8-34.6-57.9-68.3-53.9
		c-31.1,3.7-54.5,30.1-54.3,61.4c0,4.6,0.5,9.1,1.5,13.6c0.3,1.4-0.2,2.9-1.2,4c-1.1,1.1-2.6,1.5-4.1,1.1
		C79.5,290.9,76.3,290.5,73.1,290.6z"/>
	<desc>A cloud computing company based in San Francisco, California, United States</desc>
	<g>
		<line class="st7" x1="278" y1="331.3" x2="278" y2="331.3"/>
		<path id="path4521" class="st8" d="M84.5,350.1l8.1-8.1v-10.7l-8.1-8.1V350.1z"/>
		<path id="path4525" class="st8" d="M111.3,312.6l-18.8,18.8l5.3,5.3l5.3-5.3V342l8.1,8.1V312.6z"/>
		
			<linearGradient id="path4545_00000058573399347336788530000005162594334330278824_" gradientUnits="userSpaceOnUse" x1="-332.7945" y1="946.1636" x2="-332.6517" y2="946.1636" gradientTransform="matrix(0 -131.1671 -131.1671 0 124196.0312 -43305.6172)">
			<stop  offset="0" style="stop-color:#EB1C3A"/>
			<stop  offset="1" style="stop-color:#A11C3F"/>
		</linearGradient>
		<path id="path4545" style="fill:url(#path4545_00000058573399347336788530000005162594334330278824_);" d="M88.5,346.1l4-4v-10.7
			l-4-4L88.5,346.1z"/>
		
			<linearGradient id="path4565_00000037672042444498141880000002776859498019673782_" gradientUnits="userSpaceOnUse" x1="-332.3982" y1="947.1265" x2="-332.2554" y2="947.1265" gradientTransform="matrix(0 -168.5231 -168.5231 0 159712.5625 -55670.7461)">
			<stop  offset="0" style="stop-color:#EB1C3A"/>
			<stop  offset="1" style="stop-color:#A11C3F"/>
		</linearGradient>
		<path id="path4565" style="fill:url(#path4565_00000037672042444498141880000002776859498019673782_);" d="M97.9,331.3h-5.3
			l5.3,5.3l5.3-5.3V342l4,4l0-24.1L97.9,331.3z"/>
		<path id="path4597" class="st8" d="M193.4,324.7c0,2.2-3.3,2.2-3.3,0C190.1,322.6,193.4,322.6,193.4,324.7"/>
		<path id="path4611" class="st11" d="M225.6,339.3v-5.9c0-1.7-0.9-3-2.7-3c-1.7,0-2.9,1.5-2.9,3.2v5.8h-2.8v-11.4h2.5l0.2,1.5
			c1.1-1.1,2.3-1.7,3.7-1.7c2.7,0,4.8,2,4.8,5.6v6H225.6z M206.8,333.6c0,1.7,1,3.3,3.1,3.3c2,0,3.1-1.6,3.1-3.3
			c0-1.7-1.2-3.4-3.1-3.4C207.9,330.3,206.8,331.9,206.8,333.6 M215.8,333.6c0,3.3-2.2,5.9-5.9,5.9c-3.7,0-5.9-2.6-5.9-5.9
			c0-3.2,2.3-5.9,5.9-5.9C213.5,327.7,215.8,330.4,215.8,333.6 M197.7,327.9l0.2,1.3c0.9-1.4,2-1.6,3.2-1.6c1.2,0,2.3,0.5,2.9,1.1
			l-1.3,2.4c-0.6-0.5-1.1-0.7-2-0.7c-1.5,0-2.8,0.8-2.8,2.9v6h-2.8v-11.3H197.7z M190.3,339.3h2.8v-11.4h-2.8V339.3z M186,332.3
			c-0.2-1.5-1.3-2.2-2.9-2.2c-1.5,0-2.8,0.7-3.2,2.2H186z M179.8,334.6c0.2,1.4,1.4,2.4,3.4,2.4c1,0,2.4-0.4,3-1.1l1.8,1.8
			c-1.2,1.2-3.2,1.8-4.9,1.8c-3.9,0-6.2-2.4-6.2-6c0-3.4,2.3-5.9,6-5.9c3.8,0,6.2,2.3,5.7,7H179.8z M175.5,339.3h-2.8v-16.1h2.8
			L175.5,339.3z M167.4,339.3h2.8v-11.4h-2.8V339.3z M170.4,324.7c0,2.2-3.3,2.2-3.3,0C167.1,322.6,170.4,322.6,170.4,324.7
			 M156.5,333.6c0,2,1.5,3.3,3.3,3.3c1.8,0,3.2-1.4,3.2-3.3c0-2-1.4-3.3-3.2-3.3C158.1,330.3,156.5,331.6,156.5,333.6 M156.4,323.2
			v6.3c0.7-1.2,2.5-1.8,3.7-1.8c3.3,0,5.8,2,5.8,5.9c0,3.7-2.5,5.9-5.8,5.9c-1.4,0-2.8-0.5-3.7-1.8l-0.2,1.6h-2.6v-16.1H156.4z
			 M143.2,333.6c0,1.7,1,3.3,3.1,3.3c2,0,3.1-1.6,3.1-3.3c0-1.7-1.2-3.4-3.1-3.4C144.2,330.3,143.2,331.9,143.2,333.6 M152.1,333.6
			c0,3.3-2.2,5.9-5.9,5.9c-3.7,0-5.9-2.6-5.9-5.9c0-3.2,2.3-5.9,5.9-5.9C149.8,327.7,152.1,330.4,152.1,333.6 M128.9,339.3v-6.1
			c0-1.5-0.8-2.9-2.3-2.9c-1.5,0-2.4,1.4-2.4,2.9v6.1h-2.8v-11.4h2.6l0.2,1.4c0.6-1.1,1.9-1.6,3-1.6c1.4,0,2.7,0.6,3.4,2.1
			c1-1.6,2.3-2.1,3.8-2.1c3.2,0,4.8,2,4.8,5.4v6.1h-2.8v-6.1c0-1.5-0.6-2.8-2.1-2.8c-1.5,0-2.5,1.3-2.5,2.8v6.1H128.9z"/>
	</g>
	<g>
		<g>
			<line class="st12" x1="564.2" y1="285.9" x2="564.2" y2="432.7"/>
			<g>
				<polygon class="st4" points="554.2,429.7 564.2,447 574.2,429.7 				"/>
			</g>
		</g>
	</g>
	<g>
		<g>
			<line class="st12" x1="157.7" y1="382.8" x2="157.7" y2="434.3"/>
			<g>
				<polygon class="st4" points="147.7,431.4 157.7,448.6 167.6,431.4 				"/>
			</g>
		</g>
	</g>
	<line class="st12" x1="157.7" y1="162.4" x2="157.7" y2="199.5"/>
	<g>
		<g>
			<line class="st12" x1="564.2" y1="285.9" x2="930.5" y2="285.9"/>
			<g>
				<polygon class="st4" points="927.5,295.8 944.8,285.9 927.5,275.9 				"/>
			</g>
		</g>
	</g>
	<g>
		<g>
			<line class="st12" x1="677.4" y1="593" x2="930.5" y2="593"/>
			<g>
				<polygon class="st4" points="927.5,603 944.8,593 927.5,583.1 				"/>
			</g>
		</g>
	</g>
	<g>
		<g>
			<line class="st12" x1="243" y1="593" x2="496.1" y2="593"/>
			<g>
				<polygon class="st4" points="493.2,603 510.5,593 493.2,583.1 				"/>
			</g>
		</g>
	</g>
	
		<image style="overflow:visible;" width="1000" height="562" xlink:href="Airwatch_logo.png"  transform="matrix(9.095246e-02 0 0 9.095246e-02 106.1947 253.0804)">
	</image>
	<g>
		<g>
			<path class="st4" d="M1078.7,730.5h-99c-15.7-0.6-28-13.8-27.5-29.5V485.1c-0.5-15.7,11.8-28.9,27.5-29.5h99
				c15.7,0.6,28,13.8,27.5,29.5v216.1C1106.6,716.8,1094.3,729.9,1078.7,730.5z M979.6,466.4c-9.7,0.6-17.1,8.9-16.5,18.6
				c0,0,0,0,0,0.1v216.1c-0.5,9.6,6.9,17.9,16.5,18.5h99c9.7-0.6,17.1-8.9,16.5-18.6c0,0,0,0,0-0.1V485.1
				c0.5-9.6-6.9-17.9-16.5-18.5L979.6,466.4z"/>
			<rect x="1007.1" y="697.4" class="st4" width="44" height="11"/>
			<path class="st4" d="M1029.1,477.4L1029.1,477.4c6.1,0,11,4.9,11,11l0,0c0,6.1-4.9,11-11,11l0,0c-6.1,0-11-4.9-11-11l0,0
				C1018.1,482.3,1023.1,477.4,1029.1,477.4z"/>
		</g>
		<g>
			<path class="st13" d="M1044.4,555.2L1044.4,555.2l0-35.3l-12.7-3.7l-22.8,8.5l-0.1,0l0,25.6l7.8-3v-20.8l15-3.6l0,30.6l-22.8-3.1
				l22.8,8.4v0L1044.4,555.2L1044.4,555.2L1044.4,555.2z"/>
			<g>
				<defs>
					<filter id="Adobe_OpacityMaskFilter" filterUnits="userSpaceOnUse" x="987.8" y="573.3" width="77.7" height="54.4">
						<feColorMatrix  type="matrix" values="1 0 0 0 0  0 1 0 0 0  0 0 1 0 0  0 0 0 1 0"/>
					</filter>
				</defs>
				
					<mask maskUnits="userSpaceOnUse" x="987.8" y="573.3" width="77.7" height="54.4" id="b_00000006671397583946962290000018137403054928022404_">
					<g class="st14">
						<path id="a_00000169527490356303576570000001847031951025800360_" class="st15" d="M987.9,573.3h77.6v54.2h-77.6V573.3z"/>
					</g>
				</mask>
				<path class="st16" d="M1020.1,579.2c2.5-2.6,6-4.2,9.8-4.2c5.1,0,9.6,2.9,12,7.1c2.1-1,4.4-1.4,6.8-1.4
					c9.2,0,16.8,7.6,16.8,16.9c0,9.3-7.5,16.9-16.8,16.9c-1.1,0-2.2-0.1-3.3-0.3c-2.1,3.7-6.1,6.3-10.7,6.3c-1.9,0-3.7-0.4-5.4-1.2
					c-2.1,5-7.1,8.5-12.8,8.5c-6,0-11.1-3.8-13.1-9.1c-0.9,0.2-1.8,0.3-2.7,0.3c-7.2,0-13-5.9-13-13.1c0-4.9,2.6-9.1,6.5-11.4
					c-0.8-1.9-1.2-3.9-1.2-6c0-8.3,6.8-15.1,15.1-15.1C1013,573.3,1017.4,575.6,1020.1,579.2"/>
				<path class="st17" d="M999.1,601.5c0,0.1,0,0.2,0,0.2c0.1,0.1,0.3,0.2,0.4,0.3c0.8,0.4,1.5,0.5,2.3,0.5c1.6,0,2.6-0.8,2.6-2.2v0
					c0-1.3-1.1-1.7-2.2-2l-0.1,0c-0.8-0.3-1.5-0.5-1.5-1v0c0-0.4,0.4-0.8,1-0.8c0.7,0,1.5,0.2,2,0.5c0,0,0.2,0.1,0.2,0
					c0-0.1,0.3-0.8,0.3-0.9c0-0.1,0-0.1-0.1-0.2c-0.6-0.4-1.4-0.6-2.3-0.6l-0.2,0c-1.5,0-2.5,0.9-2.5,2.1v0c0,1.3,1.1,1.8,2.2,2.1
					l0.2,0.1c0.8,0.2,1.4,0.4,1.4,1v0c0,0.5-0.4,0.9-1.1,0.9c-0.3,0-1.1,0-2.1-0.6c-0.1-0.1-0.2-0.1-0.3-0.2c0,0-0.2-0.1-0.2,0.1
					L999.1,601.5 M1022.4,601.5c0,0.1,0,0.2,0,0.2c0.1,0.1,0.3,0.2,0.4,0.3c0.8,0.4,1.5,0.5,2.3,0.5c1.6,0,2.6-0.8,2.6-2.2v0
					c0-1.3-1.1-1.7-2.2-2l-0.1,0c-0.8-0.3-1.5-0.5-1.5-1v0c0-0.4,0.4-0.8,1-0.8c0.7,0,1.5,0.2,2,0.5c0,0,0.2,0.1,0.2,0
					c0-0.1,0.3-0.8,0.3-0.9c0-0.1,0-0.1-0.1-0.2c-0.6-0.4-1.4-0.6-2.3-0.6l-0.2,0c-1.5,0-2.5,0.9-2.5,2.1v0c0,1.3,1.1,1.8,2.2,2.1
					l0.2,0.1c0.8,0.2,1.4,0.4,1.4,1v0c0,0.5-0.4,0.9-1.1,0.9c-0.3,0-1.1,0-2.1-0.6c-0.1-0.1-0.2-0.1-0.3-0.2c0,0-0.2-0.1-0.2,0.1
					L1022.4,601.5 M1038.4,598.8c0,0.8-0.1,1.4-0.4,1.8c-0.3,0.4-0.7,0.6-1.3,0.6c-0.6,0-1-0.2-1.3-0.6c-0.3-0.4-0.4-1-0.4-1.8
					s0.1-1.4,0.4-1.8c0.3-0.4,0.7-0.6,1.3-0.6s1,0.2,1.3,0.6C1038.2,597.4,1038.4,598,1038.4,598.8 M1039.7,597.4
					c-0.1-0.4-0.3-0.8-0.6-1.2c-0.3-0.3-0.6-0.6-1-0.8c-0.4-0.2-0.9-0.3-1.4-0.3s-1,0.1-1.4,0.3c-0.4,0.2-0.8,0.5-1,0.8
					c-0.3,0.3-0.5,0.7-0.6,1.2c-0.1,0.4-0.2,0.9-0.2,1.4s0.1,1,0.2,1.4c0.1,0.4,0.3,0.8,0.6,1.2c0.3,0.3,0.6,0.6,1,0.8
					c0.4,0.2,0.9,0.3,1.4,0.3c0.5,0,1-0.1,1.4-0.3s0.8-0.4,1-0.8c0.3-0.3,0.5-0.7,0.6-1.2c0.1-0.4,0.2-0.9,0.2-1.4
					C1039.9,598.3,1039.8,597.8,1039.7,597.4 M1050.6,601c0-0.1-0.2-0.1-0.2-0.1c-0.2,0.1-0.4,0.1-0.6,0.2c-0.2,0-0.5,0.1-0.7,0.1
					c-0.6,0-1.2-0.2-1.5-0.6c-0.4-0.4-0.6-1-0.6-1.8c0-0.8,0.2-1.3,0.5-1.8c0.3-0.4,0.8-0.7,1.5-0.7c0.5,0,1,0.1,1.4,0.2
					c0,0,0.1,0,0.2-0.1c0.1-0.3,0.2-0.6,0.3-0.9c0-0.1-0.1-0.1-0.1-0.2c-0.2-0.1-0.6-0.2-0.9-0.2c-0.3,0-0.6-0.1-1-0.1
					c-0.6,0-1.1,0.1-1.5,0.3c-0.4,0.2-0.8,0.5-1.1,0.8c-0.3,0.3-0.5,0.7-0.6,1.2c-0.1,0.4-0.2,0.9-0.2,1.4c0,1.1,0.3,2,0.9,2.6
					c0.6,0.7,1.5,1,2.6,1c0.7,0,1.4-0.1,1.9-0.3c0,0,0.1,0,0.1-0.2L1050.6,601 M1052.9,598.1c0.1-0.4,0.2-0.8,0.4-1.1
					c0.3-0.4,0.7-0.7,1.3-0.7c0.6,0,1,0.2,1.3,0.7c0.2,0.3,0.3,0.6,0.3,1.1H1052.9L1052.9,598.1z M1057.4,597.1
					c-0.1-0.4-0.4-0.9-0.6-1.1c-0.3-0.3-0.6-0.5-0.9-0.7c-0.4-0.2-0.8-0.3-1.3-0.3c-0.6,0-1.1,0.1-1.5,0.3c-0.4,0.2-0.8,0.5-1,0.8
					c-0.3,0.3-0.5,0.7-0.6,1.2c-0.1,0.4-0.2,0.9-0.2,1.4c0,0.5,0.1,1,0.2,1.4c0.1,0.4,0.4,0.8,0.7,1.1c0.3,0.3,0.7,0.6,1.1,0.8
					c0.5,0.2,1,0.3,1.6,0.3c1.3,0,2-0.3,2.3-0.5c0,0,0.1-0.1,0-0.2l-0.3-0.8c0-0.1-0.2-0.1-0.2-0.1c-0.3,0.1-0.8,0.3-1.8,0.3
					c-0.7,0-1.2-0.2-1.5-0.5c-0.3-0.3-0.5-0.8-0.5-1.5l4.5,0c0,0,0.1,0,0.1-0.1C1057.6,599,1057.7,598.1,1057.4,597.1L1057.4,597.1z
					 M1016.9,598.1c0.1-0.4,0.2-0.8,0.4-1.1c0.3-0.4,0.7-0.7,1.3-0.7c0.6,0,1,0.2,1.3,0.7c0.2,0.3,0.3,0.6,0.3,1.1H1016.9
					L1016.9,598.1z M1021.4,597.1c-0.1-0.4-0.4-0.9-0.6-1.1c-0.3-0.3-0.6-0.5-0.9-0.7c-0.4-0.2-0.8-0.3-1.3-0.3
					c-0.6,0-1.1,0.1-1.5,0.3c-0.4,0.2-0.8,0.5-1,0.8c-0.3,0.3-0.5,0.7-0.6,1.2c-0.1,0.4-0.2,0.9-0.2,1.4c0,0.5,0.1,1,0.2,1.4
					c0.1,0.4,0.4,0.8,0.7,1.1c0.3,0.3,0.7,0.6,1.1,0.8c0.5,0.2,1,0.3,1.6,0.3c1.3,0,2-0.3,2.3-0.5c0,0,0.1-0.1,0-0.2l-0.3-0.8
					c0-0.1-0.2-0.1-0.2-0.1c-0.3,0.1-0.8,0.3-1.8,0.3c-0.7,0-1.2-0.2-1.5-0.5c-0.3-0.3-0.5-0.8-0.5-1.5l4.5,0c0,0,0.1,0,0.1-0.1
					C1021.5,599,1021.7,598.1,1021.4,597.1L1021.4,597.1z M1007.2,601c-0.2-0.1-0.2-0.2-0.3-0.3c-0.1-0.1-0.1-0.3-0.1-0.6
					c0-0.4,0.1-0.7,0.4-0.9c0,0,0.4-0.3,1.3-0.3c0.4,0,0.8,0,1.2,0.1v2h0c0,0-0.6,0.1-1.2,0.2C1007.6,601.3,1007.2,601,1007.2,601
					L1007.2,601z M1009,597.8c-0.2,0-0.4,0-0.7,0c-0.4,0-0.8,0-1.1,0.1c-0.4,0.1-0.7,0.2-0.9,0.4c-0.3,0.2-0.5,0.4-0.7,0.7
					c-0.2,0.3-0.2,0.6-0.2,1c0,0.4,0.1,0.7,0.2,1c0.1,0.3,0.3,0.5,0.6,0.7c0.3,0.2,0.6,0.3,0.9,0.4c0.4,0.1,0.8,0.1,1.2,0.1
					c0.5,0,0.9,0,1.4-0.1c0.4-0.1,0.8-0.1,1.1-0.2c0.2,0,0.3-0.1,0.3-0.1c0.1,0,0.1-0.1,0.1-0.1l0-4.1c0-0.9-0.2-1.6-0.7-2
					c-0.5-0.4-1.2-0.6-2.1-0.6c-0.3,0-0.9,0-1.2,0.1c0,0-1,0.2-1.4,0.5c0,0-0.1,0.1,0,0.2l0.3,0.9c0,0.1,0.1,0.1,0.1,0.1s0,0,0.1,0
					c0.9-0.5,2-0.5,2-0.5c0.5,0,0.9,0.1,1.1,0.3c0.2,0.2,0.4,0.5,0.4,1.1v0.2C1009.3,597.9,1009,597.8,1009,597.8L1009,597.8z
					 M1045.2,595.5c0-0.1,0-0.1-0.1-0.2c0,0,0,0,0,0c-0.1,0-0.5-0.1-0.8-0.1c-0.6,0-0.9,0.1-1.2,0.2c-0.3,0.1-0.6,0.3-0.8,0.6l0-0.5
					c0-0.1-0.1-0.1-0.1-0.1h-1.2c-0.1,0-0.1,0.1-0.1,0.1v6.7c0,0.1,0.1,0.1,0.1,0.1h1.2c0.1,0,0.1-0.1,0.1-0.1v-3.4
					c0-0.5,0-0.9,0.1-1.2c0.1-0.3,0.2-0.5,0.4-0.7c0.2-0.2,0.3-0.3,0.6-0.3c0.2-0.1,0.4-0.1,0.6-0.1c0.2,0,0.5,0.1,0.5,0.1
					c0.1,0,0.1,0,0.2-0.1C1044.9,596.2,1045.2,595.6,1045.2,595.5"/>
				<path class="st17" d="M1034.2,592.4c-0.1,0-0.3-0.1-0.4-0.1c-0.2,0-0.4,0-0.6,0c-0.8,0-1.5,0.2-1.9,0.7c-0.4,0.5-0.8,1.1-0.9,2
					l-0.1,0.3h-1c0,0-0.1,0-0.2,0.1l-0.2,0.9c0,0.1,0,0.1,0.1,0.1h1l-1,5.6c-0.1,0.5-0.2,0.8-0.3,1.1c-0.1,0.3-0.2,0.5-0.3,0.6
					c-0.1,0.1-0.2,0.3-0.4,0.3c-0.2,0.1-0.3,0.1-0.5,0.1c-0.1,0-0.3,0-0.4,0c-0.1,0-0.2,0-0.2-0.1c0,0-0.1,0-0.2,0.1
					c0,0.1-0.3,0.8-0.3,0.9c0,0.1,0,0.2,0.1,0.2c0.1,0,0.2,0.1,0.4,0.1c0.3,0.1,0.5,0.1,0.7,0.1c0.4,0,0.8-0.1,1.1-0.2
					c0.3-0.1,0.6-0.3,0.8-0.6c0.3-0.3,0.4-0.6,0.6-1c0.2-0.4,0.3-0.9,0.4-1.5l1-5.7h1.5c0,0,0.1,0,0.2-0.1l0.2-0.9
					c0-0.1,0-0.1-0.1-0.1h-1.4c0,0,0.1-0.5,0.2-1c0.1-0.2,0.2-0.4,0.3-0.5c0.1-0.1,0.2-0.2,0.4-0.2c0.2,0,0.3-0.1,0.5-0.1
					c0.1,0,0.3,0,0.4,0c0.1,0,0.2,0,0.2,0.1c0.1,0,0.2,0,0.2-0.1l0.3-0.9C1034.3,592.5,1034.2,592.4,1034.2,592.4 M1014.1,602.2
					c0,0.1-0.1,0.1-0.1,0.1h-1.2c-0.1,0-0.1-0.1-0.1-0.1v-9.6c0-0.1,0.1-0.1,0.1-0.1h1.2c0.1,0,0.1,0.1,0.1,0.1V602.2"/>
			</g>
			<path class="st18" d="M1055.9,676.2c0.7,1,0.6,2.4-0.3,3.1c-1,0.7-2.5,0.6-3.3-0.3l-5.2-6.7l-5.1,6.6c-0.7,1-2.2,1-3.3,0.3
				c-1-0.7-1.2-2.1-0.4-3.1l6-7.7l-6-7.7c-0.7-1-0.4-2.5,0.4-3.3c1-0.7,2.5-0.4,3.3,0.4l5.1,6.7l5.2-6.4c0.7-1,2.1-1.2,3.3-0.4
				c1,0.7,1,2.2,0.3,3.3l-5.8,7.6L1055.9,676.2z M1028.8,675.3c-3.9,0-7-3-7-6.9c0-3.7,3.1-6.9,7-6.9c3.9,0,7,3.1,7,6.9
				C1035.7,672.3,1032.6,675.3,1028.8,675.3z M1008.3,675.3c-3.9,0-7-3-7-6.9c0-3.7,3.1-6.9,7-6.9c3.9,0,7,3.1,7,6.9
				C1015.3,672.3,1012.1,675.3,1008.3,675.3z M1028.8,657.1c-4.3,0-8.2,2.4-10.1,6c-1.9-3.6-5.8-6-10.3-6c-2.7,0-5.1,0.9-7,2.2v-9.5
				c0-1.2-1-2.2-2.2-2.2c-1.3,0-2.4,1-2.4,2.2v18.8c0.1,6.3,5.2,11.2,11.5,11.2c4.5,0,8.3-2.5,10.3-6.1c1.9,3.6,5.8,6.1,10.1,6.1
				c6.4,0,11.6-5.1,11.6-11.5C1040.5,662.2,1035.2,657.1,1028.8,657.1z"/>
		</g>
	</g>
	<g>
		<g>
			<path class="st4" d="M208.8,730.5h-99c-15.7-0.6-28-13.8-27.5-29.5V485.1c-0.5-15.7,11.8-28.9,27.5-29.5h99
				c15.7,0.6,28,13.8,27.5,29.5v216.1C236.7,716.8,224.5,729.9,208.8,730.5z M109.8,466.4c-9.7,0.6-17.1,8.9-16.5,18.6
				c0,0,0,0,0,0.1v216.1c-0.5,9.6,6.9,17.9,16.5,18.5h99c9.7-0.6,17.1-8.9,16.5-18.6c0,0,0,0,0-0.1V485.1
				c0.5-9.6-6.9-17.9-16.5-18.5L109.8,466.4z"/>
			<rect x="137.3" y="697.4" class="st4" width="44" height="11"/>
			<path class="st4" d="M159.3,477.4L159.3,477.4c6.1,0,11,4.9,11,11l0,0c0,6.1-4.9,11-11,11l0,0c-6.1,0-11-4.9-11-11l0,0
				C148.3,482.3,153.2,477.4,159.3,477.4z"/>
		</g>
		<g>
			<path class="st13" d="M174.2,552.4L174.2,552.4l0-35.3l-12.7-3.7l-22.8,8.5l-0.1,0l0,25.6l7.8-3v-20.8l15-3.6l0,30.6l-22.8-3.1
				l22.8,8.4v0L174.2,552.4L174.2,552.4L174.2,552.4z"/>
			<g>
				<defs>
					
						<filter id="Adobe_OpacityMaskFilter_00000047783053034734568710000015865325803079695292_" filterUnits="userSpaceOnUse" x="117.6" y="570.4" width="77.7" height="54.4">
						<feColorMatrix  type="matrix" values="1 0 0 0 0  0 1 0 0 0  0 0 1 0 0  0 0 0 1 0"/>
					</filter>
				</defs>
				
					<mask maskUnits="userSpaceOnUse" x="117.6" y="570.4" width="77.7" height="54.4" id="b_00000091704483636123391510000007076879311947661487_">
					<g style="filter:url(#Adobe_OpacityMaskFilter_00000047783053034734568710000015865325803079695292_);">
						<path id="a_00000141420307045667627940000012250833015867375498_" class="st15" d="M117.7,570.4h77.6v54.2h-77.6V570.4z"/>
					</g>
				</mask>
				<path class="st20" d="M150,576.4c2.5-2.6,6-4.2,9.8-4.2c5.1,0,9.6,2.9,12,7.1c2.1-1,4.4-1.4,6.8-1.4c9.2,0,16.8,7.6,16.8,16.9
					c0,9.3-7.5,16.9-16.8,16.9c-1.1,0-2.2-0.1-3.3-0.3c-2.1,3.7-6.1,6.3-10.7,6.3c-1.9,0-3.7-0.4-5.4-1.2c-2.1,5-7.1,8.5-12.8,8.5
					c-6,0-11.1-3.8-13.1-9.1c-0.9,0.2-1.8,0.3-2.7,0.3c-7.2,0-13-5.9-13-13.1c0-4.9,2.6-9.1,6.5-11.4c-0.8-1.9-1.2-3.9-1.2-6
					c0-8.3,6.8-15.1,15.1-15.1C142.9,570.4,147.2,572.8,150,576.4"/>
				<path class="st17" d="M129,598.6c0,0.1,0,0.2,0,0.2c0.1,0.1,0.3,0.2,0.4,0.3c0.8,0.4,1.5,0.5,2.3,0.5c1.6,0,2.6-0.8,2.6-2.2v0
					c0-1.3-1.1-1.7-2.2-2l-0.1,0c-0.8-0.3-1.5-0.5-1.5-1v0c0-0.4,0.4-0.8,1-0.8c0.7,0,1.5,0.2,2,0.5c0,0,0.2,0.1,0.2,0
					c0-0.1,0.3-0.8,0.3-0.9c0-0.1,0-0.1-0.1-0.2c-0.6-0.4-1.4-0.6-2.3-0.6l-0.2,0c-1.5,0-2.5,0.9-2.5,2.1v0c0,1.3,1.1,1.8,2.2,2.1
					l0.2,0.1c0.8,0.2,1.4,0.4,1.4,1v0c0,0.5-0.4,0.9-1.1,0.9c-0.3,0-1.1,0-2.1-0.6c-0.1-0.1-0.2-0.1-0.3-0.2c0,0-0.2-0.1-0.2,0.1
					L129,598.6 M152.3,598.6c0,0.1,0,0.2,0,0.2c0.1,0.1,0.3,0.2,0.4,0.3c0.8,0.4,1.5,0.5,2.3,0.5c1.6,0,2.6-0.8,2.6-2.2v0
					c0-1.3-1.1-1.7-2.2-2l-0.1,0c-0.8-0.3-1.5-0.5-1.5-1v0c0-0.4,0.4-0.8,1-0.8c0.7,0,1.5,0.2,2,0.5c0,0,0.2,0.1,0.2,0
					c0-0.1,0.3-0.8,0.3-0.9c0-0.1,0-0.1-0.1-0.2c-0.6-0.4-1.4-0.6-2.3-0.6l-0.2,0c-1.5,0-2.5,0.9-2.5,2.1v0c0,1.3,1.1,1.8,2.2,2.1
					l0.2,0.1c0.8,0.2,1.4,0.4,1.4,1v0c0,0.5-0.4,0.9-1.1,0.9c-0.3,0-1.1,0-2.1-0.6c-0.1-0.1-0.2-0.1-0.3-0.2c0,0-0.2-0.1-0.2,0.1
					L152.3,598.6 M168.2,595.9c0,0.8-0.1,1.4-0.4,1.8c-0.3,0.4-0.7,0.6-1.3,0.6s-1-0.2-1.3-0.6c-0.3-0.4-0.4-1-0.4-1.8
					c0-0.8,0.1-1.4,0.4-1.8c0.3-0.4,0.7-0.6,1.3-0.6s1,0.2,1.3,0.6C168.1,594.6,168.2,595.2,168.2,595.9 M169.5,594.5
					c-0.1-0.4-0.3-0.8-0.6-1.2c-0.3-0.3-0.6-0.6-1-0.8c-0.4-0.2-0.9-0.3-1.4-0.3s-1,0.1-1.4,0.3c-0.4,0.2-0.8,0.5-1,0.8
					c-0.3,0.3-0.5,0.7-0.6,1.2c-0.1,0.4-0.2,0.9-0.2,1.4c0,0.5,0.1,1,0.2,1.4c0.1,0.4,0.3,0.8,0.6,1.2c0.3,0.3,0.6,0.6,1,0.8
					c0.4,0.2,0.9,0.3,1.4,0.3s1-0.1,1.4-0.3s0.8-0.4,1-0.8c0.3-0.3,0.5-0.7,0.6-1.2c0.1-0.4,0.2-0.9,0.2-1.4
					C169.7,595.4,169.7,595,169.5,594.5 M180.5,598.2c0-0.1-0.2-0.1-0.2-0.1c-0.2,0.1-0.4,0.1-0.6,0.2c-0.2,0-0.5,0.1-0.7,0.1
					c-0.6,0-1.2-0.2-1.5-0.6c-0.4-0.4-0.6-1-0.6-1.8c0-0.8,0.2-1.3,0.5-1.8c0.3-0.4,0.8-0.7,1.5-0.7c0.5,0,1,0.1,1.4,0.2
					c0,0,0.1,0,0.2-0.1c0.1-0.3,0.2-0.6,0.3-0.9c0-0.1-0.1-0.1-0.1-0.2c-0.2-0.1-0.6-0.2-0.9-0.2c-0.3,0-0.6-0.1-1-0.1
					c-0.6,0-1.1,0.1-1.5,0.3c-0.4,0.2-0.8,0.5-1.1,0.8c-0.3,0.3-0.5,0.7-0.6,1.2c-0.1,0.4-0.2,0.9-0.2,1.4c0,1.1,0.3,2,0.9,2.6
					c0.6,0.7,1.5,1,2.6,1c0.7,0,1.4-0.1,1.9-0.3c0,0,0.1,0,0.1-0.2L180.5,598.2 M182.8,595.2c0.1-0.4,0.2-0.8,0.4-1.1
					c0.3-0.4,0.7-0.7,1.3-0.7s1,0.2,1.3,0.7c0.2,0.3,0.3,0.6,0.3,1.1H182.8L182.8,595.2z M187.3,594.3c-0.1-0.4-0.4-0.9-0.6-1.1
					c-0.3-0.3-0.6-0.5-0.9-0.7c-0.4-0.2-0.8-0.3-1.3-0.3c-0.6,0-1.1,0.1-1.5,0.3c-0.4,0.2-0.8,0.5-1,0.8c-0.3,0.3-0.5,0.7-0.6,1.2
					c-0.1,0.4-0.2,0.9-0.2,1.4c0,0.5,0.1,1,0.2,1.4c0.1,0.4,0.4,0.8,0.7,1.1c0.3,0.3,0.7,0.6,1.1,0.8c0.5,0.2,1,0.3,1.6,0.3
					c1.3,0,2-0.3,2.3-0.5c0,0,0.1-0.1,0-0.2l-0.3-0.8c0-0.1-0.2-0.1-0.2-0.1c-0.3,0.1-0.8,0.3-1.8,0.3c-0.7,0-1.2-0.2-1.5-0.5
					c-0.3-0.3-0.5-0.8-0.5-1.5l4.5,0c0,0,0.1,0,0.1-0.1C187.4,596.2,187.6,595.3,187.3,594.3L187.3,594.3z M146.7,595.2
					c0.1-0.4,0.2-0.8,0.4-1.1c0.3-0.4,0.7-0.7,1.3-0.7c0.6,0,1,0.2,1.3,0.7c0.2,0.3,0.3,0.6,0.3,1.1H146.7L146.7,595.2z
					 M151.2,594.3c-0.1-0.4-0.4-0.9-0.6-1.1c-0.3-0.3-0.6-0.5-0.9-0.7c-0.4-0.2-0.8-0.3-1.3-0.3c-0.6,0-1.1,0.1-1.5,0.3
					c-0.4,0.2-0.8,0.5-1,0.8c-0.3,0.3-0.5,0.7-0.6,1.2c-0.1,0.4-0.2,0.9-0.2,1.4c0,0.5,0.1,1,0.2,1.4c0.1,0.4,0.4,0.8,0.7,1.1
					c0.3,0.3,0.7,0.6,1.1,0.8c0.5,0.2,1,0.3,1.6,0.3c1.3,0,2-0.3,2.3-0.5c0,0,0.1-0.1,0-0.2l-0.3-0.8c0-0.1-0.2-0.1-0.2-0.1
					c-0.3,0.1-0.8,0.3-1.8,0.3c-0.7,0-1.2-0.2-1.5-0.5c-0.3-0.3-0.5-0.8-0.5-1.5l4.5,0c0,0,0.1,0,0.1-0.1
					C151.4,596.2,151.5,595.3,151.2,594.3L151.2,594.3z M137,598.1c-0.2-0.1-0.2-0.2-0.3-0.3c-0.1-0.1-0.1-0.3-0.1-0.6
					c0-0.4,0.1-0.7,0.4-0.9c0,0,0.4-0.3,1.3-0.3c0.4,0,0.8,0,1.2,0.1v2h0c0,0-0.6,0.1-1.2,0.2C137.4,598.5,137,598.1,137,598.1
					L137,598.1z M138.8,595c-0.2,0-0.4,0-0.7,0c-0.4,0-0.8,0-1.1,0.1c-0.4,0.1-0.7,0.2-0.9,0.4c-0.3,0.2-0.5,0.4-0.7,0.7
					c-0.2,0.3-0.2,0.6-0.2,1c0,0.4,0.1,0.7,0.2,1c0.1,0.3,0.3,0.5,0.6,0.7c0.3,0.2,0.6,0.3,0.9,0.4c0.4,0.1,0.8,0.1,1.2,0.1
					c0.5,0,0.9,0,1.4-0.1c0.4-0.1,0.8-0.1,1.1-0.2c0.2,0,0.3-0.1,0.3-0.1c0.1,0,0.1-0.1,0.1-0.1l0-4.1c0-0.9-0.2-1.6-0.7-2
					c-0.5-0.4-1.2-0.6-2.1-0.6c-0.3,0-0.9,0-1.2,0.1c0,0-1,0.2-1.4,0.5c0,0-0.1,0.1,0,0.2l0.3,0.9c0,0.1,0.1,0.1,0.1,0.1s0,0,0.1,0
					c0.9-0.5,2-0.5,2-0.5c0.5,0,0.9,0.1,1.1,0.3c0.2,0.2,0.4,0.5,0.4,1.1v0.2C139.2,595,138.8,595,138.8,595L138.8,595z M175,592.7
					c0-0.1,0-0.1-0.1-0.2c0,0,0,0,0,0c-0.1,0-0.5-0.1-0.8-0.1c-0.6,0-0.9,0.1-1.2,0.2c-0.3,0.1-0.6,0.3-0.8,0.6l0-0.5
					c0-0.1-0.1-0.1-0.1-0.1H171c-0.1,0-0.1,0.1-0.1,0.1v6.7c0,0.1,0.1,0.1,0.1,0.1h1.2c0.1,0,0.1-0.1,0.1-0.1v-3.4
					c0-0.5,0-0.9,0.1-1.2c0.1-0.3,0.2-0.5,0.4-0.7c0.2-0.2,0.3-0.3,0.6-0.3c0.2-0.1,0.4-0.1,0.6-0.1c0.2,0,0.5,0.1,0.5,0.1
					c0.1,0,0.1,0,0.2-0.1C174.8,593.4,175,592.8,175,592.7"/>
				<path class="st17" d="M164,589.6c-0.1,0-0.3-0.1-0.4-0.1c-0.2,0-0.4,0-0.6,0c-0.8,0-1.5,0.2-1.9,0.7c-0.4,0.5-0.8,1.1-0.9,2
					l-0.1,0.3h-1c0,0-0.1,0-0.2,0.1l-0.2,0.9c0,0.1,0,0.1,0.1,0.1h1l-1,5.6c-0.1,0.5-0.2,0.8-0.3,1.1c-0.1,0.3-0.2,0.5-0.3,0.6
					c-0.1,0.1-0.2,0.3-0.4,0.3c-0.2,0.1-0.3,0.1-0.5,0.1c-0.1,0-0.3,0-0.4,0c-0.1,0-0.2,0-0.2-0.1c0,0-0.1,0-0.2,0.1
					c0,0.1-0.3,0.8-0.3,0.9c0,0.1,0,0.2,0.1,0.2c0.1,0,0.2,0.1,0.4,0.1c0.3,0.1,0.5,0.1,0.7,0.1c0.4,0,0.8-0.1,1.1-0.2
					c0.3-0.1,0.6-0.3,0.8-0.6c0.3-0.3,0.4-0.6,0.6-1c0.2-0.4,0.3-0.9,0.4-1.5l1-5.7h1.5c0,0,0.1,0,0.2-0.1l0.2-0.9
					c0-0.1,0-0.1-0.1-0.1h-1.4c0,0,0.1-0.5,0.2-1c0.1-0.2,0.2-0.4,0.3-0.5c0.1-0.1,0.2-0.2,0.4-0.2c0.2,0,0.3-0.1,0.5-0.1
					c0.1,0,0.3,0,0.4,0c0.1,0,0.2,0,0.2,0.1c0.1,0,0.2,0,0.2-0.1l0.3-0.9C164.1,589.6,164,589.6,164,589.6 M143.9,599.3
					c0,0.1-0.1,0.1-0.1,0.1h-1.2c-0.1,0-0.1-0.1-0.1-0.1v-9.6c0-0.1,0.1-0.1,0.1-0.1h1.2c0.1,0,0.1,0.1,0.1,0.1V599.3"/>
			</g>
			<path class="st18" d="M185.8,673.3c0.7,1,0.6,2.4-0.3,3.1c-1,0.7-2.5,0.6-3.3-0.3l-5.2-6.7l-5.1,6.6c-0.7,1-2.2,1-3.3,0.3
				c-1-0.7-1.2-2.1-0.4-3.1l6-7.7l-6-7.7c-0.7-1-0.4-2.5,0.4-3.3c1-0.7,2.5-0.4,3.3,0.4l5.1,6.7l5.2-6.4c0.7-1,2.1-1.2,3.3-0.4
				c1,0.7,1,2.2,0.3,3.3l-5.8,7.6L185.8,673.3z M158.7,672.4c-3.9,0-7-3-7-6.9c0-3.7,3.1-6.9,7-6.9c3.9,0,7,3.1,7,6.9
				C165.5,669.5,162.4,672.4,158.7,672.4z M138.1,672.4c-3.9,0-7-3-7-6.9c0-3.7,3.1-6.9,7-6.9c3.9,0,7,3.1,7,6.9
				C145.1,669.5,142,672.4,138.1,672.4z M158.7,654.3c-4.3,0-8.2,2.4-10.1,6c-1.9-3.6-5.8-6-10.3-6c-2.7,0-5.1,0.9-7,2.2V647
				c0-1.2-1-2.2-2.2-2.2c-1.3,0-2.4,1-2.4,2.2v18.8c0.1,6.3,5.2,11.2,11.5,11.2c4.5,0,8.3-2.5,10.3-6.1c1.9,3.6,5.8,6.1,10.1,6.1
				c6.4,0,11.6-5.1,11.6-11.5C170.3,659.3,165.1,654.3,158.7,654.3z"/>
		</g>
	</g>
</g>
<g id="English_text">
	<text transform="matrix(1 0 0 1 737.3589 559.6406)" class="st21"><tspan x="0" y="0" class="st22 st23">The end user can access the </tspan><tspan x="0" y="16.8" class="st22 st23">iOS application</tspan></text>
	<text transform="matrix(1 0 0 1 611.5008 252.0457)" class="st21"><tspan x="0" y="0" class="st22 st23">Okta Mobile verifies that the </tspan><tspan x="0" y="16.8" class="st22 st23">device is managed by an MDM</tspan></text>
	<text transform="matrix(1 0 0 1 610.2122 764.4149)" class="st21"><tspan x="0" y="0" class="st22 st23">The iOS application redirects</tspan><tspan x="0" y="16.8" class="st22 st23">the user to Okta Mobile</tspan></text>
	<text transform="matrix(1 0 0 1 187.6669 765.2236)" class="st21"><tspan x="0" y="0" class="st22 st23">The end user taps an iOS application</tspan><tspan x="0" y="16.8" class="st22 st23">to access it </tspan></text>
	<text transform="matrix(1 0 0 1 188.2124 118.6046)" class="st22 st23">The MDM distributes Okta Mobile</text>
	<text transform="matrix(1 0 0 1 188.2124 135.4044)" class="st21"><tspan x="0" y="0" class="st22 st23">with an appconfig to indicate it is </tspan><tspan x="0" y="16.8" class="st22 st23">managed</tspan></text>
</g>
</svg>
