<?xml version="1.0" encoding="utf-8"?>
<!-- Generator: Adobe Illustrator 26.0.2, SVG Export Plug-In . SVG Version: 6.00 Build 0)  -->
<svg version="1.1" xmlns="http://www.w3.org/2000/svg" xmlns:xlink="http://www.w3.org/1999/xlink" x="0px" y="0px"
	 viewBox="0 0 1256 817" style="enable-background:new 0 0 1256 817;" xml:space="preserve">
<style type="text/css">
	.st0{fill-rule:evenodd;clip-rule:evenodd;fill:#DE3C00;}
	.st1{fill:none;stroke:#969696;stroke-miterlimit:10;stroke-dasharray:5;}
	.st2{fill:#010002;}
	.st3{fill:#002979;}
	.st4{fill:#7D91CB;}
	.st5{fill:#00297A;}
	.st6{fill:none;stroke:#000000;stroke-width:2;stroke-miterlimit:10;stroke-dasharray:12;}
	.st7{fill:#1581C5;}
	.st8{fill:#F8FBFC;}
	.st9{fill:none;stroke:#00297A;stroke-width:1.6635;stroke-miterlimit:10;}
	.st10{fill:none;stroke:#00297A;stroke-width:2;stroke-miterlimit:10;}
	.st11{fill:none;}
	.st12{fill:#454545;}
	.st13{fill:#778EB1;}
	.st14{fill:#939292;}
	.st15{fill:#C0BFBF;}
	.st16{font-family:'ArialMT';}
	.st17{font-size:14px;}
</style>
<symbol  id="A" viewBox="-67.5 -40 135 80">
	<path class="st0" d="M56.6,0.3c0.2-1.1,0.2-1.9,0.2-2.8c0-14.3-10.9-26-24.4-26c-3.4,0-7.1,0.9-10.3,2.3C17.6-34.7,9.2-40,0.2-40
		c-13.5,0-24.4,11.1-25.3,25.2c-1.1-0.2-2.1-0.2-3.2-0.2c-6.4,0-12.4,3.2-16.1,8.7c-12.6-0.9-23.1,9.8-23.1,23
		c0,12.8,9.9,23.3,21.9,23.3h94.9l3-0.6c9-2.3,15.2-10.9,15.2-20.5C67.5,11,63.2,3.9,56.6,0.3z M22.5,28.1L22.5,28.1L8.8,31.9
		l-24.9-9.2l24.9,3.6V-6.7L-7.5-2.9v22.4l-8.4,3.2V-5l0,0l24.6-9.2l13.7,4.1V28.1L22.5,28.1L22.5,28.1L22.5,28.1z"/>
</symbol>
<g id="Non-text_elements">
	<line class="st1" x1="118" y1="106" x2="118" y2="806"/>
	<g id="Apple">
		<g>
			<path class="st2" d="M494.6,78.4v-3.2v-19v-19c0-1.7-1.4-3.2-3.2-3.2h-63.2c-1.7,0-3.2,1.4-3.2,3.2v19v19v3.2l-7.9,9.5
				c0,2.6,2.1,4.7,4.7,4.7h75.9c2.6,0,4.7-2.1,4.7-4.7L494.6,78.4z M466.1,91.1h-12.6c-0.4,0-0.8-0.4-0.8-0.8s0.4-0.8,0.8-0.8h12.6
				c0.4,0,0.8,0.4,0.8,0.8C466.9,90.7,466.6,91.1,466.1,91.1z M446.8,87.9l2.4-2.9h21.2l2.4,2.9H446.8z M490.1,72.9
				c0,1.5-1.2,2.8-2.8,2.8h-55.1c-1.5,0-2.8-1.2-2.8-2.8V39.8c0-1.5,1.2-2.8,2.8-2.8h55.1c1.5,0,2.8,1.2,2.8,2.8V72.9z"/>
			<path class="st2" d="M473.2,63.5c-0.8-0.3-1.4-0.8-2.1-1.3c-0.4-0.4-0.8-0.9-1.1-1.4c-0.2-0.4-0.4-0.7-0.6-1.1s-0.2-0.8-0.4-1.2
				c-0.1-0.3-0.1-0.6-0.1-0.9c0-0.7,0-1.3,0.1-2c0.1-0.5,0.3-1.1,0.5-1.6c0.6-1.2,1.5-2.1,2.6-2.8c0.1-0.1,0.2-0.1,0.3-0.2
				c-0.1-0.1-0.1-0.1-0.2-0.2c-0.6-0.8-1.4-1.4-2.2-1.9c-0.5-0.3-0.9-0.5-1.4-0.7c-0.3-0.1-0.6-0.2-0.9-0.3
				c-0.3-0.1-0.6-0.1-0.9-0.1c-0.7-0.1-1.5,0-2.2,0.2c-0.4,0.1-0.7,0.2-1,0.3c-0.3,0.1-0.6,0.2-0.8,0.3c-0.2,0.1-0.5,0.2-0.7,0.3
				c-0.4,0.1-0.8,0.2-1.1,0.3c-0.7,0.1-1.4,0-2-0.1c-0.3-0.1-0.6-0.2-0.9-0.3c-0.4-0.1-0.7-0.2-1.1-0.4c-0.3-0.1-0.6-0.2-0.9-0.3
				c-0.4-0.1-0.8-0.1-1.1-0.2c-0.8-0.1-1.6,0-2.4,0.2c-0.4,0.1-0.8,0.3-1.2,0.5c-0.6,0.3-1.2,0.7-1.7,1.1c-0.7,0.6-1.3,1.2-1.8,2
				c-0.3,0.5-0.6,1-0.8,1.6c-0.1,0.4-0.3,0.8-0.4,1.3c-0.1,0.3-0.2,0.7-0.2,1c-0.1,0.4-0.1,0.8-0.1,1.2c0,0.5,0,1,0,1.4
				c0,0.4,0.1,0.9,0.1,1.3c0,0.4,0.1,0.8,0.2,1.3c0.1,0.3,0.1,0.6,0.2,0.9c0.1,0.4,0.2,0.9,0.4,1.3c0.2,0.5,0.3,1,0.5,1.4
				c0.3,0.6,0.5,1.2,0.9,1.8c0.5,1,1.2,2,1.9,3c0.5,0.6,1,1.2,1.6,1.7c0.7,0.6,1.5,1.1,2.4,1.2c0.8,0.1,1.6,0,2.3-0.3
				c0.4-0.1,0.7-0.3,1.1-0.5c0.6-0.3,1.3-0.4,1.9-0.5c0.8-0.1,1.6-0.1,2.4,0.2c0.4,0.1,0.9,0.3,1.3,0.5c0.6,0.2,1.2,0.5,1.8,0.6
				c0.9,0.1,1.7-0.1,2.4-0.5c0.7-0.4,1.3-0.9,1.8-1.5c0.5-0.6,1-1.2,1.4-1.8c0.5-0.6,0.9-1.3,1.3-1.9c0.5-0.8,0.9-1.7,1.3-2.5
				c0-0.1,0-0.2-0.1-0.2C473.3,63.5,473.2,63.5,473.2,63.5z"/>
			<path class="st2" d="M461.1,47.8c0.6-0.2,1.1-0.4,1.6-0.8c0.7-0.5,1.3-1,1.8-1.7c0.5-0.7,0.9-1.4,1.2-2.3
				c0.2-0.6,0.3-1.2,0.3-1.9c0-0.1,0-0.3,0-0.5c0-0.2,0-0.3-0.3-0.2c-0.5,0.1-0.9,0.2-1.4,0.3c-0.5,0.2-1,0.4-1.5,0.7
				c-1.1,0.6-1.9,1.5-2.5,2.6c-0.3,0.5-0.5,1-0.7,1.6c-0.1,0.3-0.1,0.5-0.2,0.8c-0.1,0.5-0.1,0.9,0,1.4c0,0.1,0.1,0.2,0.2,0.2
				C460.1,48,460.6,47.9,461.1,47.8z"/>
		</g>
	</g>
	<g id="Okta">
		<g>
			<path class="st3" d="M847.7,92.7h-88.2c-12.8,0-23.1-10.3-23.1-23.1c0-12.8,10.3-23.1,23.1-23.1c0.8,0,1.6,0.1,2.4,0.2
				c-0.2-1.4-0.3-2.9-0.3-4.3c0.1-18.5,15.1-33.5,33.7-33.5c15.8,0,29.4,11.1,32.7,26.5c2.2-0.9,4.6-1.4,7.1-1.4
				c10.4,0,18.9,8.4,18.9,18.8c0,3.9-1.2,7.7-3.4,10.9c8,1.6,13.1,9.3,11.5,17.3C860.7,87.7,854.7,92.6,847.7,92.7z M759.5,50.7
				c-10.4,0-18.9,8.5-18.9,18.9s8.5,18.9,18.9,18.9h88.2c5.8,0,10.5-4.7,10.5-10.5c0-5.8-4.7-10.5-10.5-10.5c-0.5,0-0.9,0.1-1.4,0.1
				c-0.9,0.1-1.9-0.4-2.3-1.2c-0.4-0.8-0.2-1.8,0.5-2.5c6.2-5.2,7-14.4,1.9-20.6c-2.8-3.3-6.9-5.3-11.3-5.3c-2.7,0-5.3,0.8-7.6,2.2
				c-1,0.6-2.3,0.3-2.9-0.7c-0.1-0.2-0.2-0.5-0.3-0.8c-1.9-16.1-16.5-27.6-32.6-25.7c-14.8,1.7-26,14.4-25.9,29.3
				c0,2.2,0.3,4.4,0.7,6.5c0.1,0.7-0.1,1.4-0.6,1.9c-0.5,0.5-1.3,0.7-2,0.5C762.5,50.9,761,50.7,759.5,50.7z"/>
			<path class="st4" d="M811.8,40.2c-1-8.4-8.2-14.7-16.6-14.7v-4.2c10.6,0,19.5,7.9,20.8,18.5L811.8,40.2z"/>
		</g>
		<g id="Logo">
			<g>
				<path class="st5" d="M771.5,59.9c-5.2,0-9.4,4.2-9.4,9.4c0,5.2,4.2,9.4,9.4,9.4c5.2,0,9.4-4.2,9.4-9.4S776.7,59.9,771.5,59.9z
					 M771.5,73.9c-2.6,0-4.7-2.1-4.7-4.7c0-2.6,2.1-4.7,4.7-4.7c2.6,0,4.7,2.1,4.7,4.7C776.2,71.8,774.1,73.9,771.5,73.9z"/>
				<path class="st5" d="M788,72.4c0-0.8,0.9-1.1,1.4-0.6c2.4,2.4,6.2,6.5,6.2,6.5c0.1,0.1,0.1,0.2,0.4,0.2c0.1,0.1,0.3,0.1,0.4,0.1
					h4.2c0.8,0,1-0.9,0.7-1.3l-7-7.2l-0.4-0.4c-0.8-1-0.7-1.3,0.2-2.3l5.6-6.2c0.4-0.5,0.2-1.3-0.7-1.3h-3.8c-0.2,0-0.3,0-0.4,0.1
					c-0.3,0.1-0.3,0.2-0.4,0.2c0,0-3.1,3.3-5,5.4c-0.5,0.6-1.5,0.2-1.5-0.6V54.3c0-0.6-0.5-0.8-0.8-0.8h-3.1c-0.6,0-0.8,0.4-0.8,0.7
					v23.6c0,0.6,0.5,0.7,0.8,0.7h3.1c0.5,0,0.8-0.4,0.8-0.7v-0.3V72.4z"/>
				<path class="st5" d="M813.5,77.7l-0.4-3.2c-0.1-0.5-0.5-0.7-0.9-0.7c-0.3,0.1-0.5,0.1-0.7,0.1c-2.5,0-4.5-2-4.7-4.4
					c0-0.1,0-0.2,0-0.3v-3.8c0-0.5,0.4-0.9,0.9-0.9h4.2c0.3,0,0.8-0.3,0.8-0.8v-3c0-0.6-0.4-0.9-0.7-0.9h-4.2
					c-0.5,0-0.9-0.4-0.9-0.9v-4.7c0-0.3-0.2-0.8-0.8-0.8H803c-0.4,0-0.8,0.3-0.8,0.7c0,0,0,15.1,0,15.2c0.2,5.1,4.3,9.1,9.4,9.1
					c0.4,0,0.9-0.1,1.3-0.1C813.2,78.5,813.5,78.1,813.5,77.7z"/>
				<path class="st5" d="M836,73.8c-2.7,0-3.1-1-3.1-4.5c0,0,0,0,0-0.1v-8.5c0-0.3-0.2-0.8-0.8-0.8h-3.1c-0.4,0-0.8,0.3-0.8,0.8v0.4
					c-1.4-0.8-3-1.2-4.6-1.2c-5.2,0-9.4,4.2-9.4,9.4c0,5.2,4.2,9.4,9.4,9.4c2.3,0,4.5-0.9,6.1-2.3c0.9,1.4,2.3,2.2,4.5,2.3
					c0.4,0,2.4,0.1,2.4-0.9v-3.3C836.6,74.1,836.3,73.8,836,73.8z M823.6,73.9c-2.6,0-4.7-2.1-4.7-4.7c0-2.6,2.1-4.7,4.7-4.7
					c2.6,0,4.7,2.1,4.7,4.7C828.3,71.8,826.2,73.9,823.6,73.9z"/>
			</g>
		</g>
	</g>
	<line class="st6" x1="308" y1="258" x2="308" y2="258"/>
	<line class="st1" x1="1139" y1="106" x2="1139" y2="806"/>
	<line class="st1" x1="799.5" y1="106" x2="799.5" y2="806"/>
	<line class="st1" x1="459.4" y1="106" x2="459.4" y2="806"/>
	<g id="O365_Box">
		<g>
			<g>
				<path class="st7" d="M1193.4,83.5c-5.3,0-10.5,0-15.8,0c-9.4,0-17.2-5.6-20-14.4c-2.8-8.5,0.2-17.5,7.6-23.2
					c2.3-1.7,5-2.8,7.7-3.4c0.9-0.2,1.2-0.6,1.5-1.4c2.3-6.8,8.8-11.8,15.9-12.1c7.7-0.3,14.5,4,17.2,11.1c0.6,1.4,1.2,1.9,2.8,1.9
					c11.1,0.5,20,9.8,19.8,21.1c-0.2,11-9.1,20.1-20.1,20.4C1204.6,83.5,1199,83.5,1193.4,83.5L1193.4,83.5z M1171.8,58
					c0-2.6,0-5.1,0-7.6c0-1.4-0.5-2.6-2.2-2.6s-2,1.2-2,2.6c0,5.4,0,10.8,0,16.3c0.2,5.4,4.5,9.8,10.1,9.9c4,0,7-1.9,9.1-5.1
					c4.8,7,12.5,5.9,16.3,2.3c4-3.9,4.2-10.7,0-14.5c-5-4.6-11-3.9-16.3,2.2C1182.7,56,1179.2,55,1171.8,58z M1218.7,76.5
					c0.3,0,0.9-0.3,1.4-0.9c0.5-0.8,0.3-1.5-0.3-2.3c-1.4-1.9-2.8-3.9-4.2-5.6c-0.8-0.9-0.6-1.4,0-2.3c1.4-1.7,2.6-3.4,3.9-5.3
					c1.1-1.5,1.1-2.6,0-3.4c-1.4-0.9-2.3-0.3-3.3,0.9c-1.1,1.5-2.3,2.9-3.4,4.5c-0.6,0.9-0.9,0.8-1.5,0c-1.1-1.5-2.2-2.9-3.4-4.5
					c-0.9-1.1-1.9-1.9-3.3-0.8c-1.2,0.9-0.9,2.2,0,3.4c1.2,1.7,2.5,3.4,3.9,5c0.9,1.1,0.8,1.9-0.2,2.8c-1.4,1.7-2.6,3.4-3.9,5.3
					c-0.8,1.1-0.9,2.2,0.2,3.1c1.2,0.9,2.3,0.5,3.1-0.6c1.2-1.5,2.3-3.1,3.4-4.6c0.6-0.9,0.9-0.9,1.5,0c1.1,1.5,2.2,2.9,3.3,4.5
					C1216.6,76.1,1217.3,76.5,1218.7,76.5z"/>
				<path class="st8" d="M1171.8,58c7.4-2.8,11-2,15,3.4c5.3-6,11.3-7,16.3-2.2c4.2,4,4,10.7,0,14.5c-3.7,3.6-11.5,4.6-16.3-2.3
					c-2.2,3.3-5.1,5.3-9.1,5.1c-5.4-0.2-9.9-4.3-10.1-9.9c-0.2-5.4,0-10.8,0-16.3c0-1.4,0.5-2.6,2-2.6s2.2,1.1,2.2,2.6
					C1171.8,52.9,1171.8,55.3,1171.8,58z M1183.8,66.5c0-3.4-2.6-6-6-6.2c-3.3,0-6,2.8-6,6c0,3.4,2.6,6,6,6
					C1181.4,72.5,1183.8,69.9,1183.8,66.5z M1189.9,66.5c0,3.4,2.8,6,6.2,6s6-2.8,6-6.2c0-3.3-2.8-6-6.2-6
					C1192.5,60.4,1189.9,63.1,1189.9,66.5z"/>
				<path class="st8" d="M1218.7,76.5c-1.4,0-2-0.5-2.6-1.2c-1.1-1.5-2.3-2.9-3.3-4.5c-0.6-0.9-0.9-0.8-1.5,0
					c-1.1,1.5-2.3,3.1-3.4,4.6c-0.9,1.1-2,1.5-3.1,0.6c-1.1-0.8-0.9-2-0.2-3.1c1.2-1.7,2.5-3.6,3.9-5.3c0.8-0.9,0.9-1.7,0.2-2.8
					c-1.4-1.5-2.5-3.4-3.9-5c-0.9-1.1-1.2-2.3,0-3.4s2.3-0.3,3.3,0.8c1.1,1.5,2.3,2.9,3.4,4.5c0.6,0.8,0.9,0.9,1.5,0
					c1.1-1.5,2.2-2.9,3.4-4.5c0.8-1.1,1.9-1.9,3.3-0.9c1.2,0.8,1.1,1.9,0,3.4c-1.2,1.7-2.5,3.6-3.9,5.3c-0.8,0.9-0.8,1.4,0,2.3
					c1.5,1.9,2.8,3.7,4.2,5.6c0.6,0.8,0.8,1.5,0.3,2.3C1219.6,76.2,1219,76.5,1218.7,76.5z"/>
				<path class="st7" d="M1183.8,66.5c0,3.4-2.6,6-6,6s-6-2.6-6-6c0-3.4,2.8-6.2,6-6C1181.2,60.3,1183.8,63.1,1183.8,66.5z"/>
				<path class="st7" d="M1189.9,66.5c0-3.4,2.6-6,6-6.2c3.4,0,6.2,2.6,6.2,6c0,3.4-2.6,6-6,6.2
					C1192.7,72.5,1189.9,69.9,1189.9,66.5z"/>
			</g>
			<g>
				<defs>
					<rect id="SVGID_1_" x="1047.6" y="29" width="92" height="54.5"/>
				</defs>
				<clipPath id="SVGID_00000072986664369311322070000010147241388330937475_">
					<use xlink:href="#SVGID_1_"  style="overflow:visible;"/>
				</clipPath>
				<g transform="matrix(1 0 0 1 0 0)" style="clip-path:url(#SVGID_00000072986664369311322070000010147241388330937475_);">
					
						<use xlink:href="#A"  width="135" height="80" x="-67.5" y="-40" transform="matrix(0.6812 0 0 0.6812 1093.572 56.2578)" style="overflow:visible;"/>
				</g>
			</g>
		</g>
		<rect x="1038.9" y="16.3" class="st9" width="200" height="80"/>
	</g>
	<g>
		<g>
			<line class="st10" x1="119" y1="213" x2="445.6" y2="213"/>
			<g>
				<polygon class="st5" points="442.7,223 460,213 442.7,203 				"/>
			</g>
		</g>
	</g>
	<g>
		<g>
			<line class="st10" x1="459" y1="282" x2="785.6" y2="282"/>
			<g>
				<polygon class="st5" points="782.7,292 800,282 782.7,272 				"/>
			</g>
		</g>
	</g>
	<g>
		<g>
			<line class="st10" x1="799" y1="708" x2="1125.6" y2="708"/>
			<g>
				<polygon class="st5" points="1122.7,718 1140,708 1122.7,698 				"/>
			</g>
		</g>
	</g>
	<g>
		<g>
			<line class="st10" x1="459.9" y1="501" x2="1125.5" y2="501"/>
			<g>
				<polygon class="st5" points="1122.6,511 1139.9,501 1122.6,491 				"/>
			</g>
		</g>
	</g>
	<g>
		<g>
			<g>
				<line class="st10" x1="119" y1="363.5" x2="784.6" y2="363.5"/>
				<g>
					<polygon class="st5" points="781.7,373.5 799,363.5 781.7,353.5 					"/>
				</g>
			</g>
		</g>
		<g>
			<g>
				<line class="st10" x1="133.4" y1="338.5" x2="799" y2="338.5"/>
				<g>
					<polygon class="st5" points="136.3,348.5 119,338.5 136.3,328.5 					"/>
				</g>
			</g>
		</g>
	</g>
	<g id="Minus-file">
		<path d="M408.5,180.2c-0.4,0-0.7,0.3-0.7,0.7c0,0.4,0.3,0.7,0.7,0.7h9.7c0.4,0,0.7-0.3,0.7-0.7c0-0.4-0.3-0.7-0.7-0.7H408.5z"/>
		<path d="M430.5,166.9l-10.8-10.8c-0.1-0.1-0.3-0.2-0.5-0.2l-21,0c-1.1,0-2.1,0.9-2.1,2.1v40.1c0,0.6,0.3,1.1,0.7,1.5
			c0.4,0.4,1,0.6,1.6,0.6h30.2c0.6,0,1.1-0.2,1.5-0.6c0.4-0.4,0.6-0.9,0.6-1.5v-30.9C430.7,167.2,430.6,167,430.5,166.9z M419,157.4
			l9.6,9.6H419C419,161.3,419,158.6,419,157.4z M429.3,198.3c0,0.2-0.1,0.4-0.2,0.5c-0.1,0.1-0.3,0.2-0.5,0.2h-30.2
			c-0.2,0-0.5-0.1-0.6-0.2c-0.1-0.1-0.3-0.3-0.3-0.6V158c0-0.4,0.4-0.7,0.8-0.7l19.4,0c0,1.7,0,7,0,10.4c0,0.2,0.1,0.4,0.2,0.5
			c0.1,0.1,0.3,0.2,0.5,0.2h11.1V198.3z"/>
	</g>
	<g id="Certificate-file">
		<path d="M430.7,397.6c0-0.1,0-0.1,0-0.2c0,0,0,0,0-0.1c0-0.1-0.1-0.2-0.2-0.2c0,0-2.7-2.7-5.4-5.4c-1.3-1.3-2.7-2.7-3.7-3.7
			c-0.7-0.7-1.2-1.2-1.6-1.5c0,0,0,0,0,0c0,0,0,0,0,0l0,0c-0.5-0.4-0.7-0.5-0.9-0.3l-20.4,0c-1.3,0-2.4,1.1-2.4,2.4v39.6
			c0,0.7,0.3,1.3,0.7,1.8c0.5,0.5,1.1,0.7,1.8,0.7h10.3c0.4,0,0.8-0.4,0.8-0.8c0-0.4-0.4-0.8-0.8-0.8h-10.3c-0.3,0-0.5-0.1-0.7-0.3
			c-0.2-0.2-0.3-0.4-0.3-0.7v-39.6c0-0.5,0.4-0.9,0.9-0.9l20,0c0,1.8,0,6.7,0,10c0,0.2,0.1,0.4,0.2,0.6c0.1,0.1,0.3,0.2,0.6,0.2h10
			v29.9c0,0.2-0.1,0.4-0.2,0.6c-0.2,0.2-0.4,0.2-0.6,0.2h-0.4c-0.4,0-0.8,0.4-0.8,0.8c0,0.4,0.4,0.8,0.8,0.8h0.4
			c0.6,0,1.3-0.3,1.7-0.7c0.4-0.4,0.7-1.1,0.7-1.7L430.7,397.6C430.7,397.6,430.7,397.6,430.7,397.6z M420,396.8
			c0-4.1,0.1-6.6,0-8.1c1.8,1.8,5.2,5.2,8,8.1H420z"/>
		<path d="M424.7,424.8c0-0.1-0.1-0.2-0.1-0.3c1.1-1.4,1.8-3.1,1.8-5c0-4.3-3.5-7.8-7.8-7.8c-4.3,0-7.8,3.5-7.8,7.8
			c0,2,0.8,3.8,2,5.2l-2.6,9.1c-0.1,0.3,0,0.6,0.2,0.8c0.2,0.2,0.6,0.2,0.8,0.1l2.7-1.3l1.7,2.4c0.1,0.2,0.4,0.3,0.6,0.3
			c0,0,0.1,0,0.1,0c0.3-0.1,0.5-0.3,0.6-0.6l1.8-6.7l1.8,6.7c0.1,0.3,0.3,0.5,0.6,0.6c0,0,0.1,0,0.1,0c0.3,0,0.5-0.1,0.6-0.3
			l1.7-2.4l2.7,1.3c0.3,0.1,0.6,0.1,0.8-0.1c0.2-0.2,0.3-0.5,0.2-0.8L424.7,424.8z M418.5,413.2c3.5,0,6.3,2.8,6.3,6.3
			c0,3.5-2.8,6.3-6.3,6.3c-3.5,0-6.3-2.8-6.3-6.3C412.2,416,415,413.2,418.5,413.2z M415.8,433.6l-1.1-1.6c-0.2-0.3-0.6-0.4-1-0.3
			l-1.7,0.8l1.9-6.7c1,0.7,2.2,1.2,3.5,1.4L415.8,433.6z M423.6,431.8c-0.3-0.2-0.8-0.1-1,0.3l-1.1,1.6l-1.7-6.4
			c1.3-0.2,2.5-0.8,3.5-1.5l2,6.9L423.6,431.8z"/>
		<path d="M418.5,423.4c2.2,0,3.9-1.8,3.9-3.9c0-2.2-1.8-3.9-3.9-3.9c-2.2,0-3.9,1.8-3.9,3.9C414.6,421.7,416.4,423.4,418.5,423.4z
			 M418.5,417.1c1.3,0,2.4,1.1,2.4,2.4c0,1.3-1.1,2.4-2.4,2.4c-1.3,0-2.4-1.1-2.4-2.4C416.2,418.2,417.2,417.1,418.5,417.1z"/>
	</g>
	<g>
		<g>
			<line class="st10" x1="473.4" y1="440" x2="800" y2="440"/>
			<g>
				<polygon class="st5" points="476.3,450 459,440 476.3,430 				"/>
			</g>
		</g>
	</g>
	<g>
		<g>
			<line class="st10" x1="813.4" y1="570" x2="1140" y2="570"/>
			<g>
				<polygon class="st5" points="816.3,580 799,570 816.3,560 				"/>
			</g>
		</g>
	</g>
	<g>
		<g>
			<g>
				<line class="st10" x1="459" y1="625.5" x2="785.6" y2="625.5"/>
				<g>
					<polygon class="st5" points="782.7,635.5 800,625.5 782.7,615.5 					"/>
				</g>
			</g>
		</g>
		<g>
			<g>
				<line class="st10" x1="472.4" y1="652.5" x2="799" y2="652.5"/>
				<g>
					<polygon class="st5" points="475.3,662.5 458,652.5 475.3,642.5 					"/>
				</g>
			</g>
		</g>
	</g>
	<g>
		<g>
			<line class="st10" x1="474.4" y1="777" x2="1140" y2="777"/>
			<g>
				<polygon class="st5" points="477.3,787 460,777 477.3,767 				"/>
			</g>
		</g>
	</g>
	<rect class="st11" width="1256" height="817"/>
	<g id="jamf_PRO">
		<path class="st12" d="M77.4,69.4c-3.7,0-4.9,1.8-4.9,3.5c0,1.7,1.2,3.5,4.9,3.5c3.7,0,4.9-1.8,4.9-3.5
			C82.3,71.1,81.1,69.4,77.4,69.4L77.4,69.4z M82.2,66.9c0-2.9-2.9-3.5-5.2-3.5c-1.6,0-3.2,0.4-4.8,1.2L70.9,62
			c2.6-1.1,4.7-1.3,6.3-1.3c4.2,0,8,1.8,8,6v12h-2.8v-1.9c-1.5,1.6-3.2,2.3-5.5,2.3c-4.2,0-7.6-2.4-7.6-6.3c0-3.2,2.7-6,7.5-6
			c1.8,0,3.8,0.5,5.4,2V66.9L82.2,66.9z"/>
		<path class="st12" d="M113.9,67.9c0-3-1.7-4.4-3.8-4.4c-2.5,0-4.4,1.6-4.4,4.5v10.6h-3V67.9c0-3-1.7-4.4-3.8-4.4
			c-2.5,0-4.4,1.6-4.4,4.5v10.6h-3V61.1h3v2.1h0.1c0.8-1.8,3-2.5,4.8-2.5c1.8,0,3.7,0.5,5.1,3c1.1-2.2,3.4-3,5.7-3
			c3.7,0,6.7,2.3,6.7,6.9v11.1h-3V67.9L113.9,67.9z"/>
		<path class="st12" d="M124.3,58.4c0-3.7,2.5-5.4,6-5.6v3h-0.6c-1.5,0-2.4,1.2-2.4,2.8v2.4h2.8v2.7h-2.8v14.9h-3V63.7h-2.6v-2.7
			h2.6V58.4L124.3,58.4z"/>
		<path class="st12" d="M63.1,53.4c1.2,0,2.1,0.9,2.1,2.1c0,1.2-0.9,2.1-2.1,2.1c-1.2,0-2.1-0.9-2.1-2.1C61,54.3,62,53.4,63.1,53.4
			L63.1,53.4z M61.7,61.1l3,0l0.1,19.8c0,4.6-3,6.1-6.3,6.1c0,0,0,0-1.1,0l0-2.9c0.8,0,1.1,0,1.1,0c2.9,0,3.3-1.6,3.3-3.1L61.7,61.1
			L61.7,61.1z"/>
		<path class="st13" d="M22.8,49.7c-0.9,0-1.6,0.7-1.6,1.6v11c0,0.9,0.7,1.5,1.5,1.5h5.5c2.5,0,6-0.5,7-5c0,0,0.9-4.5,1.5-7.2
			c0.2-1-0.5-1.9-1.6-1.9H22.8L22.8,49.7z"/>
		<path class="st13" d="M43.9,54.9c-3.7,0-5.9,1.6-6.9,4.9c0,0-2.6,8-2.6,8c-1,2.6-2.5,3.7-5.3,3.7h-6.4c-0.8,0-1.5,0.7-1.5,1.5v4.1
			c0,0.8,0.6,1.4,1.4,1.4h26.1c0.8,0,1.5-0.7,1.5-1.5V56.3c0-0.8-0.6-1.4-1.4-1.4H43.9L43.9,54.9z"/>
		<path class="st14" d="M161.6,68.4c3.4,0,5.3-1.7,5.3-4.9c0-3.3-1.9-5-5.3-5h-2.8v9.9H161.6L161.6,68.4z M156,56h6.2
			c4.7,0,7.6,3.7,7.6,7.5c0,3.8-2.8,7.4-7.6,7.4h-3.4v7.7H156V56L156,56z"/>
		<path class="st14" d="M176.4,67.2c0.4,0,0.8,0,2.5,0c4.3,0,5.8-1.9,5.8-4.4c0-2.6-1.8-4.4-4.7-4.4h-3.6V67.2L176.4,67.2z
			 M176.4,69v9.6h-2.8V56h6.4c4.3,0,7.5,2.5,7.5,6.8c0,4-3.2,6.5-6.8,6.7l8.7,9h-4L176.4,69L176.4,69z"/>
		<path class="st14" d="M203,76.3c4.6,0,8.9-3.6,8.9-9c0-5.4-4.3-9-8.9-9c-4.6,0-8.9,3.6-8.9,9C194.1,72.7,198.4,76.3,203,76.3
			L203,76.3z M203,55.7c7.6,0,11.9,6.1,11.9,11.7c0,5.6-4.3,11.7-11.9,11.7c-7.6,0-11.9-6.1-11.9-11.7
			C191.1,61.7,195.4,55.7,203,55.7L203,55.7z"/>
		<path class="st15" d="M143.2,92.7c-0.2,0-0.4-0.2-0.4-0.4V38.5c0-0.2,0.2-0.4,0.4-0.4c0.2,0,0.4,0.2,0.4,0.4v53.8
			C143.6,92.5,143.4,92.7,143.2,92.7L143.2,92.7z"/>
	</g>
</g>
<g id="English_text">
	<text transform="matrix(1 0 0 1 492.0198 759.328)" class="st16 st17">The user sucessfully accesses apps</text>
	<text transform="matrix(1 0 0 1 834.0198 690.328)" class="st16 st17">Okta authenticates the user</text>
	<text transform="matrix(1 0 0 1 491.0198 574.328)" class="st16 st17">Okta assesses the trust posture of the </text>
	<text transform="matrix(1 0 0 1 491.0198 591.1278)" class="st16 st17">macOS device by challenging for and </text>
	<text transform="matrix(1 0 0 1 491.0198 607.9281)" class="st16 st17">verifying the certificate</text>
	<text transform="matrix(1 0 0 1 834.0198 551.328)" class="st16 st17">The user is redirected to Okta to authenticate</text>
	<text transform="matrix(1 0 0 1 834.0411 466.2323)" class="st16 st17">A user attempts to access SAML/WS-Fed apps</text>
	<text transform="matrix(1 0 0 1 834.0411 483.0321)" class="st16 st17">that are secured by Okta Device Trust</text>
	<text transform="matrix(1 0 0 1 490.3303 422.8323)" class="st16 st17">on the managed macOS device</text>
	<text transform="matrix(1 0 0 1 490.3303 406.032)" class="st16 st17">Registration Task configures the certificate </text>
	<text transform="matrix(1 0 0 1 490.3303 389.2322)" class="st16 st17">Okta CA grants the certificate. The Okta </text>
	<text transform="matrix(1 0 0 1 150.4194 304.2194)" class="st16 st17">Okta verifies that the macOS device is </text>
	<text transform="matrix(1 0 0 1 150.4194 321.0192)" class="st16 st17">managed by Jamf Pro</text>
	<text transform="matrix(1 0 0 1 488.0884 247.2196)" class="st16 st17">The Okta Registration Task requests a</text>
	<text transform="matrix(1 0 0 1 488.0884 264.0194)" class="st16 st17">certificate from the Okta CA</text>
	<text transform="matrix(1 0 0 1 150.7578 179.9492)" class="st16 st17">Jamf Pro pushes Okta Registration </text>
	<text transform="matrix(1 0 0 1 150.7578 196.749)" class="st16 st17">Tasks to managed macOS devices</text>
</g>
</svg>
