<svg width="304" height="190" viewBox="0 0 304 190" fill="none" xmlns="http://www.w3.org/2000/svg">
<g clip-path="url(#clip0)">
<path d="M12.2348 177.465V141.181V136.562V50.7986V40.9028V21.7708L30.0783 19.1319H39.9913L75.0174 12.5347V0L1 9.23611V190L75.0174 180.764V168.229L12.2348 177.465Z" fill="#E4E5E7"/>
<path d="M153 21.5V8.5L74.6783 0V12.5347L153 21.5Z" fill="#E4E5E7"/>
<path d="M229 12.5V0L152.991 8.57639V21.1111L229 12.5Z" fill="#E4E5E7"/>
<path d="M153 177V189.5L229 180.764L229.339 168.5L153 177Z" fill="#E4E5E7"/>
<path d="M228.991 12.5347L260.383 16.4931L292.104 20.4514V39.5833V49.4792V85.1042V95V176.146L228.991 168.229V180.764L304 188.681V7.91667L228.991 0V12.5347Z" fill="#E4E5E7"/>
<path d="M153 40V21L74.6783 12.5347V31.6667L153 40Z" fill="#E5EDFB"/>
<path d="M229 31.5V12.5L152.991 21.1111V40.2431L229 31.5Z" fill="#E5EDFB"/>
<path d="M245.183 51.4583V77.8472L228.991 71.25V77.1875L250.47 83.7847L250.397 48.1597L228.991 41.5625V44.8611L245.183 51.4583Z" fill="#E5EDFB"/>
<path d="M153 136L229 127.326L229 122.5L153 131.5V136Z" fill="#E5EDFB"/>
<path d="M76.6609 100.278H74.6783V127.326H76.6609V100.278Z" fill="#FCF9E1"/>
<path d="M102.435 75V51.4583L153 53.5V50L74.6783 41.5625V44.8611V87.0833V90.3819H76.6609L86.5739 96.9792V119.66L114.33 119.575V97.5597C114.33 87.5781 120.278 83.7847 128.129 83.7847L138.201 85.7639L153 86V79.5L102.435 75Z" fill="#E5EDFB"/>
<path d="M153 86L229.17 77.1282V71.1907L153 80.5V86Z" fill="#E5EDFB"/>
<path d="M43.2957 93.6806V51.4583L75.0174 44.8611V41.5625L39.9913 48.1597V96.9792L75.0174 90.3819V83.5L43.2957 93.6806Z" fill="#E5EDFB"/>
<path d="M229 44.5V41.5L152.991 50.1389V53.4375L229 44.5Z" fill="#E5EDFB"/>
<path d="M260.442 105.212C260.442 105.212 260.442 105.292 260.475 115.273C260.508 125.255 258.321 126.667 250.47 126.667L237.913 124.028L228.991 122.537V127.326L283.513 135.243V171.528L228.991 163.611V168.229L292.104 176.146V95L260.383 93.6805L260.442 105.212Z" fill="#E5EDFB"/>
<path d="M12.2348 141.181V177.465L75.0174 168.229V131.944L12.2348 141.181ZM17.5218 172.847V143.819L72.3739 134.583V163.611L17.5218 172.847Z" fill="#E5FFF6"/>
<path d="M260.383 83.7847L292.104 85.1041V49.4791L260.31 48.1597L260.383 83.7847Z" fill="#E5EDFB"/>
<path d="M130.191 170.208V133.924L153 136V131.5L124.243 129.444V174.826L153 177V172.5L130.191 170.208Z" fill="#E5EDFB"/>
<path d="M292.104 39.5833V20.4514L260.383 16.493L260.29 38.2639L292.104 39.5833Z" fill="#E5EDFB"/>
<path d="M153 172.5L152.991 177L229 168.5V163.5L153 172.5Z" fill="#E5EDFB"/>
<path d="M75 100L30.0783 106.875V48.1597L12.2348 50.7986V136.562L75 127.5V100ZM17.5218 131.944V112.812L72.3739 103.576V122.708L17.5218 131.944Z" fill="#BCD1F5"/>
<path d="M250.377 38.2639L250.337 19.1583L250.47 15.1736L228.991 12.5347V31.6667L250.377 38.2639Z" fill="#E5EDFB"/>
<path d="M75.0174 31.6667V12.5347L39.9913 17.7913V38.2639L75.0174 31.6667Z" fill="#E5EDFB"/>
<path d="M75.0174 127.326L12.2348 136.563V141.181L75.0174 131.944V127.326Z" fill="#E5EDFB"/>
<path d="M153 39.9999L74.6783 31.6666V41.5625L153 49.9999V39.9999Z" fill="#FCF9E1"/>
<path d="M153 121V131.5L229 122.543L229.339 112L224.658 112.654L153 121Z" fill="#FCF9E1"/>
<path d="M250.377 38.2639L228.991 31.6666V41.5625L250.397 48.1597L250.47 83.7847L228.991 77.1875V87.0833L250.47 93.6805V102.917L250.503 113.894C250.503 115.874 249.756 115.438 246.452 115.445L228.938 112.634V122.53L237.913 124.028L250.47 126.667C258.321 126.667 260.502 125.248 260.475 115.273C260.449 105.298 260.442 105.212 260.442 105.212L260.383 93.6805L292.104 95V85.1041L260.383 83.7847L260.31 48.1597L292.104 49.4791V39.5833L260.29 38.2639L260.383 16.493L250.47 15.1736L250.377 38.2639Z" fill="#FCF9E1"/>
<path d="M153 95.5L229 87.0833L229.339 77L153 86V95.5Z" fill="#FCF9E1"/>
<path d="M30.0783 96.9792V106.875L75.0174 100.278V90.3819L39.9913 96.9792V48.1597L75.0174 41.5625V31.6667L39.9913 38.2639V17.8125L30.0783 19.1319V38.2639L12.2348 40.9028V50.7986L30.0783 48.1597V96.9792Z" fill="#FCF9E1"/>
<path d="M152.991 50.1389L229 41.5V31.5L152.991 40V50.1389Z" fill="#FCF9E1"/>
<path d="M153 131.5V121L124.243 119.548V98.9583C124.243 96.9791 126.887 93.6805 130.191 93.6805L153 95.5V86L128.129 83.7847C120.278 83.7847 114.33 87.5781 114.33 97.5597V119.575L86.5739 119.66V96.9791L76.6609 90.3819H74.6783V100.278L75 169.5L86.5739 170.208V129.556L114.33 129.47V174.826L124.243 175.486V129.444L153 131.5Z" fill="#FCF9E1"/>
<path d="M245.183 77.8472V50.1389L228.991 44.8611V71.25L245.183 77.8472Z" fill="#BCD1F5"/>
<path d="M152.991 80.5L229 71.5V44.5L152.991 53.4375V80.5Z" fill="#BCD1F5"/>
<path d="M102.435 48.5V76L153 80.5V53.5L102.435 48.5Z" fill="#BCD1F5"/>
<path d="M129.191 93.6805C125.887 93.6805 123.243 96.9792 123.243 98.9583V119.548L152.5 121L152 95.5L129.191 93.6805Z" fill="#E5FFF6"/>
<path d="M152.5 121L229 112V87L152 95.5L152.5 121Z" fill="#E5FFF6"/>
<path d="M246.5 116C249.804 116 250.575 115.893 250.575 113.914L250.522 102.917V93.6806L228.991 87.0834V112.641L246.5 116Z" fill="#E5FFF6"/>
<path d="M86.5739 128.065V170.043L114.33 174.826V127.986L86.5739 128.065Z" fill="#E5FFF6"/>
<path d="M30.0783 19.132L12.2348 21.7708V40.9028L30.0783 38.2639V19.132Z" fill="#E5FFF6"/>
<path d="M17.5217 112.813V131.944L72.3739 122.708V103.576L17.5217 112.813Z" fill="#E5FFF6"/>
<path d="M42.2957 93.6805L74.0174 87.0833V44.8611L42.2957 51.4583V93.6805Z" fill="#E5FFF6"/>
<path d="M96.8087 98.9583V48.1597L73.6783 44.8611V87.0833L96.8087 98.9583Z" fill="#E5FFF6"/>
<path d="M130.191 133.924V170.208L153 172.5V136L130.191 133.924Z" fill="#E5FFF6"/>
<path d="M283.513 171.528V135.243L228.661 127.326L228.991 163.611L283.513 171.528Z" fill="#E5FFF6"/>
<path d="M153 136V172.5L229.17 163.553V127.269L153 136Z" fill="#E5FFF6"/>
<path d="M17.5217 143.819V172.847L72.3739 163.611V134.583L17.5217 143.819Z" fill="#E5FFF6"/>
<path d="M74.6783 168.229V180.764L153 189.5V177L74.6783 168.229Z" fill="#E4E5E7"/>
<path d="M304 8L229 0V180.5L304 188.5V8Z" fill="#2F3F4A" fill-opacity="0.2"/>
<path d="M153 8.5L75 0V180.5L153 189.5V8.5Z" fill="#2F3F4A" fill-opacity="0.2"/>
<g style="mix-blend-mode:multiply">
<ellipse cx="192.5" cy="79.5" rx="16.5" ry="8.5" fill="#CDD1D3" fill-opacity="0.4"/>
</g>
</g>
<path d="M221.149 28.5052C221.149 44.2481 193 79 193 79C193 79 164.851 44.2481 164.851 28.5052C164.851 12.7622 177.454 0 193 0C208.547 0 221.149 12.7622 221.149 28.5052Z" fill="#A0A7AC"/>
<circle cx="193" cy="28.1494" r="20.8851" fill="#FAFAFA"/>
<path d="M182.403 30.8301H176.655V28.7636L181.43 21.0696H184.962V28.5237H186.512V30.8301H184.962V33.3763H182.403V30.8301ZM179.16 28.5237H182.403V23.3944L179.16 28.5237Z" fill="#899298"/>
<path d="M187.569 27.2322C187.569 26.1251 187.749 25.0919 188.109 24.1324C188.482 23.1607 189.04 22.3796 189.785 21.7892C190.53 21.1864 191.449 20.8851 192.542 20.8851C193.635 20.8851 194.554 21.1864 195.299 21.7892C196.044 22.3796 196.596 23.1607 196.957 24.1324C197.329 25.0919 197.515 26.1251 197.515 27.2322C197.515 28.3392 197.329 29.3786 196.957 30.3504C196.596 31.3221 196.044 32.1093 195.299 32.7121C194.554 33.3025 193.635 33.5977 192.542 33.5977C191.449 33.5977 190.53 33.3025 189.785 32.7121C189.04 32.1093 188.482 31.3221 188.109 30.3504C187.749 29.3786 187.569 28.3392 187.569 27.2322ZM194.903 27.2322C194.903 26.0144 194.71 25.0427 194.326 24.3169C193.954 23.5789 193.359 23.2099 192.542 23.2099C191.725 23.2099 191.125 23.5789 190.74 24.3169C190.356 25.0427 190.164 26.0144 190.164 27.2322C190.164 28.4499 190.356 29.4278 190.74 30.1659C191.125 30.9039 191.725 31.2729 192.542 31.2729C193.359 31.2729 193.954 30.9039 194.326 30.1659C194.71 29.4278 194.903 28.4499 194.903 27.2322Z" fill="#899298"/>
<path d="M204.329 30.8301H198.581V28.7636L203.356 21.0696H206.887V28.5237H208.437V30.8301H206.887V33.3763H204.329V30.8301ZM201.085 28.5237H204.329V23.3944L201.085 28.5237Z" fill="#899298"/>
<defs>
<clipPath id="clip0">
<rect width="304" height="190" fill="white"/>
</clipPath>
</defs>
</svg>
