<svg width="23" height="24" viewBox="0 0 23 24" fill="none" xmlns="http://www.w3.org/2000/svg">
<path d="M15.8629 9.11C15.8629 5.34791 12.8171 2.29823 9.0596 2.29823C5.30236 2.29823 2.25634 5.34805 2.25634 9.11C2.25634 12.8719 5.30236 15.9218 9.0596 15.9218C12.8171 15.9218 15.8629 12.8721 15.8629 9.11ZM18.1192 9.11C18.1192 14.1198 14.0632 18.1809 9.0596 18.1809C4.05621 18.1809 0 14.1196 0 9.11C0 4.10035 4.05621 0.0390625 9.0596 0.0390625C14.0632 0.0390625 18.1192 4.10023 18.1192 9.11Z" fill="#5C6971"/>
<path d="M16.0372 18.9394L15.9542 18.856C14.8329 17.7304 14.3013 17.1991 13.6578 16.5637C12.9112 15.8269 12.703 15.0189 13.4359 14.2991C14.1683 13.5802 14.9495 13.8084 15.696 14.5559C16.502 15.3636 17.2411 16.1039 18.5381 17.4029L19.0118 17.8774C20.5536 19.4216 21.3919 20.2613 22.3276 21.1992C23.0705 21.943 23.2809 22.7466 22.5338 23.468C21.7936 24.1825 21.0267 23.9587 20.2838 23.1995C19.6363 22.5381 19.1008 22.0008 17.9378 20.8411L17.8896 20.7931C17.4463 20.351 17.2302 20.1352 16.9744 19.8792C16.7107 19.6153 16.4808 19.3847 16.0372 18.9394Z" fill="#5C6971"/>
</svg>
